<svg width="149" height="149" viewBox="0 0 149 149" fill="none" xmlns="http://www.w3.org/2000/svg">
<path fill-rule="evenodd" clip-rule="evenodd" d="M55.2548 17.826C55.1906 18.6125 55.0435 19.8693 54.6393 21.6733C54.2259 23.4772 53.5371 25.8284 53.1144 27.1108C52.6917 28.3932 52.5265 28.6241 52.4254 28.9659C52.3245 29.308 52.2875 29.7782 52.1407 30.2399C51.9937 30.7102 51.7458 31.1889 51.4424 31.7447C51.1394 32.3005 50.7719 32.9501 50.5422 33.617C50.3035 34.2838 50.1931 34.9679 50.0553 35.3952C49.9268 35.8227 49.7707 35.9851 49.6971 36.2503C49.6237 36.5154 49.6329 36.8744 49.4951 37.1736C49.3573 37.4729 49.0817 37.7208 48.8887 38.0457C48.6867 38.3705 48.5671 38.7808 48.3192 39.3708C48.071 39.9607 47.6853 40.7303 47.3637 41.4227C47.0422 42.1154 46.7758 42.7309 46.638 43.184C46.4912 43.637 46.4819 43.9191 46.3534 44.2783C46.2155 44.6373 45.9584 45.0649 45.6735 45.5863C45.3979 46.1165 45.0856 46.732 44.9111 47.2365C44.7366 47.7323 44.6906 48.1085 44.5436 48.5019C44.3965 48.8864 44.1486 49.2798 43.9374 49.656C43.7259 50.0321 43.5422 50.3828 43.4595 50.759C43.3677 51.1435 43.3677 51.5455 43.2943 51.802C43.2209 52.0499 43.0738 52.1524 42.743 52.4175C42.4215 52.6826 41.9072 53.1013 41.659 53.3151C41.4018 53.5203 41.4018 53.5203 41.3192 53.7684C41.2458 54.0077 41.0895 54.4864 40.9517 54.837C40.8047 55.196 40.6853 55.4184 40.6027 55.7945C40.52 56.1621 40.4741 56.6924 40.3638 57.0941C40.2444 57.4873 40.0607 57.7696 39.9503 58.1286C39.8402 58.4878 39.8035 58.9409 39.7943 59.1974C39.785 59.4537 39.8035 59.5222 39.7116 59.7016C39.629 59.8812 39.436 60.1719 39.2982 60.5053C39.1604 60.8301 39.087 61.1894 38.9766 61.5142C38.8665 61.8476 38.7195 62.1383 38.5173 62.412C38.3153 62.6769 38.0581 62.9334 37.9203 63.0531C37.7918 63.1813 37.7918 63.1813 37.7918 63.284C37.7825 63.3951 37.7733 63.6089 37.7733 63.8054C37.764 64.002 37.764 64.1816 37.764 64.2757C37.764 64.3698 37.764 64.3698 37.81 64.3698C37.8559 64.3782 37.9478 64.3868 38.1223 64.5408C38.2968 64.6947 38.545 64.9939 38.9674 65.5153C39.3808 66.037 39.978 66.7721 40.3271 67.2338C40.6668 67.6869 40.768 67.8579 40.8231 67.9435C40.8783 68.029 40.8783 68.029 40.9609 68.029C41.0436 68.0204 41.2089 68.0118 41.3651 67.9776C41.5304 67.9349 41.6867 67.8665 41.7968 67.7982C41.8979 67.7211 41.9531 67.6442 41.9806 67.61C42.0083 67.5673 42.0083 67.5673 42.0173 67.6272C42.0265 67.6869 42.045 67.8066 42.0265 68.0204C42.0083 68.2341 41.9531 68.5334 41.9254 68.6786C41.8979 68.8327 41.8979 68.8327 41.9623 68.8496C42.0265 68.8668 42.1551 68.901 42.3021 68.9609C42.4399 69.0123 42.587 69.0892 42.8349 69.3371C43.0831 69.5936 43.4321 70.0126 43.7996 70.346C44.1668 70.6708 44.5436 70.9187 44.8744 71.1067C45.2049 71.3035 45.4806 71.4488 45.7195 71.5429C45.9674 71.6284 46.1788 71.6625 46.289 71.6797C46.3993 71.6967 46.4083 71.6967 46.4819 71.7652C46.5461 71.8421 46.6749 71.9788 47.0699 72.3466C47.4649 72.7056 48.1262 73.2955 48.5396 73.7059C48.9531 74.1076 49.1184 74.3471 49.2469 74.5609C49.3755 74.7747 49.4766 74.9713 49.5226 75.0737C49.5777 75.1678 49.5777 75.1678 49.6696 75.202C49.7615 75.2278 49.9452 75.2875 50.2483 75.4243C50.5514 75.5696 50.9741 75.7833 51.2772 75.9629C51.5895 76.1426 51.7732 76.2878 51.8833 76.4074C52.0029 76.5273 52.0489 76.6212 52.1867 76.7409C52.3245 76.8608 52.5542 76.9974 52.7377 77.0659C52.9214 77.1342 53.0685 77.1342 53.2707 77.2453C53.4727 77.3566 53.7391 77.5787 54.134 77.8866C54.5382 78.1945 55.062 78.579 55.411 78.7758C55.7508 78.981 55.9254 78.998 56.0999 79.1434C56.2746 79.2803 56.4584 79.5538 56.743 79.742C57.0186 79.9385 57.4043 80.0582 57.6892 80.212C57.9833 80.3575 58.1853 80.5371 58.2864 80.6309C58.3875 80.7165 58.3875 80.7165 58.5435 80.6395C58.6998 80.5626 59.0029 80.4088 59.2968 79.9555C59.5999 79.5024 59.894 78.7417 60.1144 78.1259C60.3349 77.519 60.4727 77.0487 60.6012 76.7495C60.7391 76.4588 60.8676 76.3391 60.9136 76.1853C60.9595 76.0229 60.9228 75.8347 60.8309 75.7322C60.7391 75.6209 60.592 75.5954 60.5278 75.5013C60.4727 75.4071 60.5001 75.2447 60.6012 75.0737C60.7116 74.9027 60.8953 74.7147 61.0791 74.5437C61.2626 74.3727 61.4463 74.2103 61.52 74.0223C61.5842 73.8341 61.529 73.6203 61.5659 73.3896C61.6026 73.1587 61.7312 72.9193 61.7864 72.6115C61.8415 72.3122 61.8231 71.936 61.8046 71.5001C61.7956 71.064 61.7864 70.5512 61.9057 69.9013C62.0251 69.2516 62.2732 68.4651 62.4385 67.7638C62.604 67.0628 62.6867 66.4473 62.806 65.5923C62.9346 64.7288 63.0909 63.6175 63.2561 62.7796C63.4306 61.9503 63.6144 61.3859 63.7797 60.8729C63.9452 60.3601 64.092 59.8812 64.2665 59.6077C64.4413 59.3254 64.634 59.2401 64.7259 59.1974C64.827 59.1546 64.827 59.1546 64.8822 58.8895C64.9373 58.6244 65.0474 58.103 65.2864 57.1111C65.525 56.1108 65.9018 54.6488 66.2233 53.4861C66.5449 52.3234 66.8205 51.4514 67.0317 50.6648C67.2522 49.8867 67.3992 49.1857 67.4726 48.8353C67.546 48.4933 67.546 48.4933 67.6289 48.4933C67.7208 48.4933 67.8953 48.4933 68.0881 48.536C68.2718 48.5874 68.474 48.6812 68.5749 48.724C68.6852 48.7753 68.6852 48.7753 68.7586 48.6898C68.8323 48.6043 68.9791 48.4333 69.1539 48.2967C69.3284 48.1598 69.5303 48.0657 69.76 48.006C69.9805 47.9375 70.2376 47.9033 70.3572 47.8861C70.4858 47.8692 70.4858 47.8692 70.4214 47.8092C70.3665 47.7495 70.2469 47.6298 70.1458 47.5613C70.0541 47.5016 69.9712 47.493 69.9345 47.4844C69.8978 47.4844 69.8978 47.4844 69.999 47.4672C70.1091 47.4588 70.3113 47.433 70.5317 47.4758C70.7614 47.5185 71.0093 47.6298 71.2665 47.7751C71.5239 47.9205 71.781 48.0999 72.0107 48.2539C72.2496 48.4163 72.4609 48.5446 72.6628 48.7156C72.8651 48.895 73.067 49.1174 73.26 49.297C73.453 49.468 73.6457 49.596 73.7836 49.6815C73.9214 49.767 74.004 49.8014 74.05 49.8184C74.0869 49.8356 74.0869 49.8356 74.0959 49.8953C74.0959 49.9552 74.1051 50.0749 74.0684 50.1432C74.0225 50.2201 73.9306 50.2459 73.9398 50.4083C73.9491 50.5707 74.0592 50.87 74.197 51.229C74.3441 51.5796 74.5093 51.9814 74.4819 52.161C74.4634 52.3406 74.2429 52.2806 74.1418 52.2551C74.0317 52.2293 74.0317 52.2293 74.1603 52.5116C74.2889 52.7851 74.5553 53.3323 74.932 54.4009C75.3177 55.4611 75.8323 57.0342 76.1354 57.9747C76.4477 58.9065 76.558 59.2143 76.613 59.3598C76.6681 59.5136 76.6681 59.5136 76.6681 59.7274C76.6589 59.9411 76.6499 60.3771 76.6499 60.5908C76.6407 60.8046 76.6407 60.8046 76.6956 60.8729C76.7508 60.95 76.8611 61.0953 76.9163 61.2149C76.9712 61.3346 76.9712 61.4287 77.0631 61.5997C77.1642 61.7621 77.348 61.9931 77.5225 62.2921C77.7062 62.5828 77.8807 62.9506 77.9726 63.13C78.0553 63.3096 78.0553 63.3096 78.0553 63.472C78.0553 63.6344 78.0553 63.9593 78.0645 64.2502C78.0645 64.5322 78.0737 64.7716 78.1379 64.934C78.1931 65.0964 78.3034 65.1819 78.3583 65.2247C78.4135 65.2674 78.4135 65.2674 78.4043 65.4298C78.3861 65.5923 78.3583 65.9087 78.3034 66.148C78.2482 66.3874 78.1656 66.5498 78.1289 66.6353C78.083 66.7124 78.083 66.7124 78.2575 67.0201C78.432 67.3193 78.7903 67.9179 79.0933 68.6275C79.3964 69.3285 79.6538 70.1406 79.8191 70.8418C79.9844 71.5515 80.067 72.1498 80.1774 72.6201C80.2875 73.0817 80.4345 73.4066 80.5541 73.6461C80.6827 73.8855 80.7835 74.0307 80.8847 74.441C80.9858 74.86 81.0869 75.5354 81.1695 76.1511C81.2522 76.7667 81.3166 77.3139 81.4634 77.7412C81.6012 78.1601 81.8124 78.4508 81.9135 78.6903C82.0239 78.9297 82.0239 79.1093 82.0239 79.323C82.0239 79.5366 82.0239 79.7847 82.0239 79.9127C82.0239 80.0326 82.0239 80.0326 82.134 80.0754C82.2535 80.1181 82.4832 80.212 82.7771 80.2975C83.0709 80.383 83.4202 80.4685 83.5947 80.5113C83.7692 80.554 83.7692 80.554 83.8519 80.443C83.9253 80.3317 84.0816 80.101 84.3205 79.8358C84.5499 79.5709 84.8533 79.2631 85.037 78.9211C85.2208 78.5707 85.2849 78.1945 85.3216 78.0063C85.3493 77.8183 85.3493 77.8183 85.4135 77.8267C85.4779 77.8439 85.6065 77.8694 85.6617 77.9465C85.7166 78.0235 85.6799 78.1517 85.6707 78.22C85.6524 78.28 85.6524 78.28 85.7443 78.1945C85.8362 78.109 86.0107 77.938 86.2771 77.7498C86.5435 77.5704 86.9017 77.365 87.2415 77.2112C87.5816 77.0487 87.8939 76.9291 88.2062 76.6981C88.5093 76.4674 88.8216 76.1168 89.0605 75.8433C89.3085 75.5696 89.4922 75.3644 89.7127 75.185C89.9331 75.014 90.1997 74.8686 90.3283 74.7916C90.4569 74.7147 90.4569 74.7147 90.4109 74.6548C90.3742 74.5951 90.2914 74.4754 90.2457 74.3557C90.2087 74.2359 90.2087 74.1162 90.2087 74.0565C90.2087 73.9965 90.2087 73.9965 90.3191 73.9965C90.4292 73.9965 90.6499 73.9965 90.8059 73.9879C90.953 73.9796 91.0356 73.9624 91.1182 73.911C91.2009 73.8597 91.2835 73.7742 91.3754 73.723C91.4673 73.6803 91.5591 73.6717 91.6695 73.6803C91.7888 73.6973 91.9266 73.7314 92.0552 73.74C92.193 73.7572 92.3216 73.7486 92.4412 73.6631C92.5605 73.5776 92.6706 73.4066 93.0381 73.0989C93.3964 72.7911 94.0028 72.338 94.5356 71.8763C95.0684 71.4146 95.5185 70.9529 95.8216 70.6536C96.1157 70.3544 96.2535 70.2261 96.3913 70.1406C96.5289 70.0637 96.6667 70.0295 96.7955 69.9271C96.9241 69.833 97.0434 69.6705 97.2272 69.3285C97.4109 68.9951 97.6499 68.4906 97.8151 68.0461C97.9804 67.61 98.0723 67.2424 98.1734 66.9346C98.2745 66.6269 98.3846 66.3874 98.4398 66.2677C98.495 66.148 98.495 66.148 98.4398 66.0539C98.3846 65.9684 98.2745 65.7891 98.2376 65.5753C98.2009 65.3529 98.2376 65.105 98.2835 64.8743C98.3204 64.6519 98.3664 64.4467 98.3938 64.344C98.4123 64.233 98.4123 64.233 98.4857 64.2757C98.5591 64.3099 98.6969 64.3782 98.8073 64.4809C98.9266 64.5836 99.0185 64.7202 99.046 64.9681C99.0829 65.2077 99.0552 65.5667 99.037 65.8488C99.0277 66.1394 99.0277 66.3618 99.0277 66.4729C99.0277 66.5842 99.0277 66.5842 99.1655 66.5156C99.3034 66.4387 99.579 66.2935 99.7902 66.1309C100.011 65.9684 100.158 65.7891 100.231 65.695C100.305 65.6094 100.304 65.6094 100.433 65.6008C100.571 65.6008 100.837 65.5923 101.049 65.5411C101.26 65.4898 101.425 65.4043 101.582 65.3529C101.738 65.3016 101.894 65.2846 102.004 65.2247C102.114 65.1649 102.179 65.0622 102.408 64.8143C102.638 64.575 103.042 64.1816 103.428 63.874C103.823 63.5575 104.218 63.3182 104.411 63.1985C104.604 63.0789 104.604 63.0789 104.576 62.942C104.558 62.7966 104.512 62.5231 104.365 62.3007C104.209 62.07 103.961 61.8904 103.713 61.5741C103.455 61.2577 103.198 60.8132 103.051 60.454C102.904 60.0864 102.868 59.8129 102.849 59.676C102.831 59.5392 102.831 59.5392 102.684 59.5478C102.537 59.5564 102.252 59.5736 102.114 59.5819C101.967 59.5905 101.967 59.5905 101.986 59.505C102.004 59.4281 102.041 59.2657 102.059 59.0178C102.078 58.7613 102.078 58.4278 102.124 58.2141C102.16 58.0089 102.243 57.9234 102.289 57.8207C102.326 57.7182 102.325 57.59 102.041 57.0599C101.765 56.5297 101.196 55.5808 100.773 54.6147C100.341 53.6485 100.047 52.6568 99.8821 51.819C99.7258 50.9811 99.7076 50.2887 99.6983 49.9466C99.6891 49.596 99.6891 49.596 99.579 49.4764C99.4594 49.3481 99.2297 49.1002 99.1104 48.9719C99 48.8522 99 48.8523 98.9359 48.9122C98.8714 48.9805 98.7429 49.1088 98.6143 49.1771C98.4765 49.237 98.3479 49.237 98.2468 49.0918C98.1457 48.9464 98.0723 48.6557 98.0541 48.3478C98.0356 48.0402 98.0723 47.7237 97.8334 46.8431C97.5854 45.9711 97.0527 44.5349 96.7863 43.5857C96.5199 42.6368 96.5107 42.1837 96.4003 41.833C96.2902 41.4827 96.079 41.2431 95.9779 41.0551C95.886 40.8669 95.9042 40.7303 95.9502 40.619C96.0053 40.5079 96.088 40.4224 95.9502 40.0462C95.8216 39.6701 95.4633 39.0032 95.1877 38.1484C94.9031 37.2847 94.6916 36.2247 94.26 34.8566C93.8191 33.4887 93.1667 31.813 92.6157 30.4279C92.0737 29.0431 91.6418 27.9487 91.2101 26.8543C90.7784 25.7513 90.3558 24.6571 90.1446 24.1014C89.9241 23.5542 89.9241 23.5542 89.8138 23.6055C89.7037 23.6652 89.4832 23.7765 89.3544 23.8276C89.2166 23.879 89.1706 23.8704 89.1432 23.5797C89.1247 23.2976 89.1247 22.7249 88.8583 21.4595C88.5919 20.1856 88.0499 18.2192 87.5541 16.6205C87.0488 15.0217 86.5894 13.7991 86.2955 12.9784C86.0015 12.1576 85.8729 11.7387 85.579 11.0718C85.2942 10.4049 84.8533 9.49014 84.5317 8.65229C84.2101 7.81442 84.0171 7.04495 83.9253 6.50633C83.8244 5.97626 83.8244 5.65993 83.8244 5.2923C83.8152 4.92467 83.8059 4.48865 83.8059 4.27491C83.7967 4.06117 83.7967 4.06117 83.6589 3.82177C83.5121 3.5824 83.2272 3.09506 83.0342 2.74453C82.8415 2.38545 82.7496 2.15462 82.7037 2.03492C82.6577 1.91523 82.6577 1.91523 82.5659 2.04347C82.4648 2.16317 82.2718 2.40255 82.1799 2.52224C82.079 2.64194 82.079 2.64194 81.7757 2.40255C81.4818 2.17171 80.8754 1.69294 80.3519 1.25691C79.8191 0.820885 79.369 0.410505 79.1393 0.205316C78.9188 -0.00842279 78.9188 -0.0255218 78.6617 0.0257754C78.4043 0.0685233 77.8992 0.179667 77.5869 0.290812C77.2836 0.393406 77.1734 0.496002 77.0449 0.615695C76.9163 0.735388 76.7785 0.863631 76.5488 0.949129C76.3191 1.03462 75.9976 1.07737 75.676 1.23981C75.3544 1.40226 75.0421 1.68439 74.8217 1.89813C74.6104 2.11187 74.4911 2.24866 74.4267 2.31707C74.3715 2.38545 74.3715 2.38545 74.2889 2.51371C74.2062 2.6505 74.05 2.91552 73.7376 3.26605C73.4163 3.61658 72.9385 4.04407 72.4976 4.54849C72.0659 5.06146 71.6799 5.64283 71.3034 5.94208C70.9359 6.23276 70.5869 6.23276 70.1458 6.35244C69.6956 6.4807 69.1629 6.72862 68.7127 6.95092C68.2536 7.16466 67.8861 7.3613 67.592 7.46389C67.3074 7.57505 67.0869 7.60068 66.8388 7.76314C66.5816 7.93413 66.2875 8.2419 65.911 8.56678C65.525 8.89166 65.0659 9.22509 64.6525 9.47304C64.239 9.71243 63.8808 9.86632 63.7063 9.9518C63.5225 10.0288 63.5225 10.0288 63.4491 10.1484C63.3847 10.2767 63.2469 10.5246 62.9805 10.9094C62.7141 11.3026 62.3284 11.8242 62.0161 12.1405C61.7127 12.4568 61.4741 12.5765 61.3637 12.6278C61.2444 12.6877 61.2444 12.6877 61.0514 12.6877C60.8494 12.6877 60.4542 12.6877 60.0777 12.6535C59.701 12.6193 59.3519 12.5509 59.1774 12.5081C59.0029 12.4739 59.0029 12.4739 58.8559 12.662C58.7088 12.8416 58.4057 13.2006 57.9741 13.7136C57.5332 14.2351 56.9452 14.902 56.4858 15.3808C56.0265 15.851 55.6774 16.1246 55.5122 16.2614C55.3374 16.3982 55.3374 16.3982 55.3374 16.5606C55.3374 16.7231 55.3284 17.0394 55.2548 17.826ZM57.8822 9.63548C58.2864 9.42173 58.8559 9.13106 59.3704 8.85746C59.8847 8.59243 60.3623 8.33594 60.6379 8.14785C60.9228 7.95976 61.0147 7.83152 61.0606 7.76314C61.1065 7.70328 61.1066 7.70328 61.3914 7.68618C61.676 7.66908 62.2365 7.63488 62.6407 7.62633C63.0449 7.61778 63.2836 7.63488 63.4399 7.69473C63.6052 7.75459 63.6878 7.85717 63.8074 7.96831C63.9175 8.07091 64.0645 8.18205 64.1379 8.2419C64.2116 8.29321 64.2116 8.29321 64.1012 8.40434C63.9911 8.51548 63.7707 8.74632 63.4951 8.92586C63.2194 9.11396 62.8794 9.25929 62.6682 9.3619C62.457 9.46449 62.3651 9.52434 62.3466 9.60127C62.3284 9.66968 62.3833 9.75516 62.457 9.80647C62.5211 9.84922 62.604 9.85777 62.5855 9.90907C62.5671 9.96035 62.4477 10.0459 62.264 10.1741C62.0802 10.3023 61.8323 10.4733 61.6301 10.6272C61.4189 10.7811 61.2626 10.9179 61.1892 10.9863C61.1066 11.0547 61.1066 11.0547 60.9136 11.0461C60.7116 11.029 60.3166 11.0034 59.7469 11.012C59.1774 11.0205 58.4332 11.0632 58.0659 11.0889C57.6892 11.106 57.68 11.106 57.6158 11.0632C57.5606 11.012 57.4503 10.9179 57.2391 10.8324C57.0186 10.7469 56.7063 10.67 56.55 10.6358C56.394 10.593 56.394 10.593 56.4032 10.5246C56.4214 10.4562 56.4491 10.3194 56.4584 10.2511C56.4766 10.1826 56.4766 10.1826 56.5685 10.1655C56.6511 10.157 56.8256 10.1313 57.0371 10.0544C57.2483 9.97746 57.4872 9.84067 57.8822 9.63548ZM28.201 93.9342C28.1276 94.4386 28.0173 95.0627 27.8705 95.6269C27.7234 96.1997 27.5397 96.7127 27.4478 96.9692C27.3559 97.2257 27.3559 97.2257 27.3285 97.5847C27.3008 97.9353 27.2548 98.6364 27.1907 99.1921C27.1263 99.7393 27.0436 100.141 26.9243 100.44C26.8047 100.748 26.6487 100.962 26.566 101.073C26.4924 101.176 26.4924 101.176 26.3915 101.526C26.2904 101.868 26.0882 102.552 25.7024 103.347C25.3167 104.142 24.7562 105.031 24.2786 105.775C23.81 106.511 23.4334 107.1 23.0935 107.87C22.7444 108.648 22.4413 109.614 22.0555 110.751C21.6788 111.88 21.2103 113.188 20.7694 114.205C20.3376 115.223 19.915 115.949 19.5935 116.454C19.2628 116.967 19.024 117.266 18.9045 117.42C18.7851 117.574 18.7851 117.574 18.7943 117.719C18.8035 117.864 18.8219 118.155 18.8311 118.3C18.8403 118.446 18.8403 118.446 18.7392 118.454C18.6382 118.454 18.4452 118.463 18.3442 118.471C18.234 118.471 18.2156 118.471 18.0135 118.711C17.8206 118.942 17.4439 119.403 17.0489 119.831C16.6539 120.258 16.2497 120.643 15.9465 121.062C15.6434 121.489 15.4505 121.942 15.1106 122.447C14.7707 122.951 14.2746 123.499 13.8337 123.934C13.3836 124.362 12.9702 124.67 12.7681 124.824C12.566 124.977 12.566 124.977 12.5109 125.2C12.4465 125.431 12.3271 125.875 12.1893 126.251C12.0515 126.636 11.8954 126.944 11.8127 127.389C11.7392 127.833 11.7392 128.423 11.6382 128.902C11.5463 129.381 11.3626 129.748 11.2707 129.936C11.1788 130.116 11.1788 130.116 11.2432 130.176C11.2983 130.227 11.4177 130.338 11.5371 130.441C11.6657 130.552 11.7851 130.646 11.8403 130.689C11.9046 130.74 11.9046 130.74 11.7116 130.868C11.5187 130.996 11.1421 131.253 10.9584 131.381C10.7655 131.509 10.7655 131.509 10.8114 131.663C10.8665 131.817 10.9676 132.134 11.0411 132.578C11.1145 133.014 11.1605 133.596 11.188 133.886C11.2064 134.168 11.2064 134.168 11.3534 134.237C11.5004 134.297 11.8035 134.425 12.0975 134.707C12.4006 134.989 12.7038 135.416 12.9242 135.904C13.1539 136.391 13.2917 136.93 13.4662 137.357C13.6408 137.776 13.8521 138.076 14.045 138.409C14.2379 138.742 14.4124 139.101 14.5043 139.281C14.5961 139.461 14.5961 139.461 14.7064 139.452C14.8258 139.443 15.0555 139.426 15.377 139.443C15.6893 139.461 16.1027 139.512 16.3507 139.572C16.608 139.623 16.709 139.683 16.8193 139.717C16.9203 139.743 17.0305 139.743 17.15 139.674C17.2602 139.606 17.3888 139.469 17.4531 139.401C17.5174 139.324 17.5266 139.315 17.7746 139.349C18.0227 139.375 18.5095 139.443 18.9229 139.546C19.3363 139.64 19.667 139.768 19.814 139.914C19.9518 140.059 19.9059 140.213 19.4649 140.529C19.0332 140.837 18.1972 141.316 17.7838 141.547C17.3704 141.786 17.3704 141.786 17.6919 141.692C18.0135 141.598 18.6565 141.41 19.3547 141.222C20.0528 141.034 20.8061 140.854 21.5594 140.777C22.3127 140.7 23.0751 140.726 23.5436 140.717C24.0213 140.709 24.2142 140.666 24.4807 140.563C24.747 140.452 25.0778 140.281 25.2431 140.196C25.4083 140.11 25.4083 140.11 25.675 140.11C25.9504 140.11 26.4834 140.11 27.0621 140.127C27.65 140.153 28.2747 140.196 28.7431 140.162C29.2117 140.136 29.5148 140.033 29.8086 139.982C30.0935 139.939 30.3783 139.948 30.5988 139.999C30.8285 140.05 31.003 140.144 31.15 140.196C31.2968 140.256 31.4164 140.273 31.6369 140.273C31.8573 140.273 32.1696 140.256 32.5646 140.239C32.9596 140.23 33.4464 140.221 33.8232 140.298C34.1907 140.384 34.4663 140.555 34.65 140.64C34.8335 140.726 34.9346 140.726 35.0725 140.657C35.2103 140.581 35.3848 140.435 35.6789 140.23C35.9727 140.033 36.3769 139.768 36.7719 139.64C37.1669 139.503 37.5621 139.495 37.8007 139.606C38.0489 139.709 38.15 139.939 38.1867 140.11C38.2234 140.281 38.196 140.401 37.9663 140.538C37.7458 140.674 37.3231 140.828 36.9464 140.991C36.5699 141.162 36.2484 141.333 36.0831 141.418C35.9268 141.504 35.9268 141.504 36.0921 141.504C36.2576 141.504 36.5881 141.504 37.0475 141.478C37.5161 141.453 38.1041 141.401 38.545 141.222C38.9951 141.034 39.289 140.726 39.5831 140.461C39.8769 140.187 40.18 139.956 40.3271 139.837C40.4741 139.717 40.4741 139.717 40.5934 139.726C40.7128 139.726 40.9517 139.734 41.2181 139.837C41.4752 139.931 41.7693 140.11 41.9439 140.23C42.1276 140.358 42.201 140.427 42.2377 140.461C42.2747 140.495 42.2747 140.495 42.394 140.444C42.5133 140.401 42.7523 140.307 43.1105 140.256C43.4688 140.204 43.9374 140.196 44.1853 140.187C44.4332 140.187 44.4517 140.187 44.2772 140.093C44.1119 139.999 43.7626 139.811 43.3769 139.589C42.9912 139.375 42.5593 139.136 42.3481 138.956C42.1276 138.785 42.1184 138.674 42.2287 138.648C42.3388 138.623 42.5685 138.682 42.9635 138.828C43.3584 138.982 43.9097 139.221 44.3691 139.435C44.8374 139.649 45.2049 139.845 45.3887 139.939C45.5724 140.033 45.5724 140.033 45.8481 139.991C46.1144 139.948 46.6472 139.862 47.4833 139.802C48.3192 139.734 49.4584 139.7 50.0461 139.683C50.634 139.666 50.6707 139.666 50.4962 139.52C50.3217 139.367 49.9268 139.067 49.6511 138.742C49.3665 138.418 49.1918 138.076 49.0999 137.905C49.0172 137.734 49.0172 137.734 49.1276 137.768C49.2469 137.81 49.4766 137.887 49.6878 137.973C49.8993 138.058 50.1013 138.152 50.2943 138.204C50.4872 138.247 50.68 138.247 50.8455 138.323C51.0015 138.4 51.1301 138.563 51.3231 138.751C51.5251 138.948 51.7825 139.178 51.9111 139.298C52.0396 139.409 52.0396 139.409 52.1315 139.409C52.2326 139.409 52.4254 139.409 52.5816 139.392C52.7287 139.375 52.8388 139.341 52.9951 139.392C53.1511 139.443 53.3441 139.58 53.785 139.657C54.2259 139.734 54.9242 139.751 55.65 139.845C56.3755 139.931 57.129 140.085 57.6617 140.162C58.1853 140.239 58.4791 140.239 58.6262 140.239C58.7825 140.239 58.7825 140.239 58.6169 140.11C58.4609 139.991 58.1486 139.734 57.7718 139.58C57.3953 139.418 56.9452 139.349 56.2746 139.11C55.5948 138.871 54.6945 138.452 53.8584 137.973C53.0225 137.494 52.2508 136.938 51.8284 136.519C51.3965 136.101 51.3139 135.801 51.2772 135.656C51.2312 135.511 51.2312 135.511 51.0749 135.519C50.9189 135.528 50.6066 135.545 50.3861 135.459C50.1749 135.374 50.0461 135.186 49.8441 134.664C49.6419 134.143 49.3573 133.296 49.1828 132.51C49.0172 131.723 48.9623 131.014 48.9346 130.654C48.9071 130.295 48.9071 130.295 48.7509 130.013C48.5856 129.731 48.2733 129.158 48.071 128.654C47.8691 128.149 47.7772 127.696 47.7312 127.2C47.6853 126.705 47.6853 126.149 47.7957 125.576C47.9058 124.995 48.1262 124.396 48.2366 124.097C48.3467 123.789 48.3467 123.789 48.2088 123.712C48.071 123.627 47.7956 123.464 47.6394 123.31C47.4833 123.148 47.4464 122.994 47.4556 122.84C47.4649 122.686 47.52 122.524 47.7128 122.182C47.915 121.831 48.2548 121.293 48.5304 120.839C48.806 120.395 49.0083 120.044 49.2195 119.745C49.4399 119.455 49.6696 119.224 49.7889 119.104C49.8993 118.993 49.8993 118.993 49.8901 118.762C49.8808 118.531 49.8623 118.078 49.9175 117.642C49.9635 117.198 50.092 116.779 50.2024 116.06C50.3125 115.334 50.4136 114.308 50.5606 113.376C50.7167 112.435 50.9189 111.58 51.0567 110.914C51.1945 110.238 51.2679 109.751 51.4609 109.264C51.6539 108.785 51.957 108.314 52.104 108.075C52.2601 107.836 52.2601 107.836 52.2601 107.613C52.2601 107.391 52.2601 106.947 52.2875 106.622C52.306 106.297 52.352 106.1 52.4071 105.921C52.4623 105.75 52.5265 105.596 52.5632 105.519C52.5909 105.442 52.5909 105.442 52.5909 105.228C52.5816 105.014 52.5724 104.595 52.5542 104.262C52.5265 103.928 52.4898 103.689 52.4713 103.569C52.4531 103.45 52.4531 103.45 52.3704 103.45C52.2786 103.441 52.104 103.433 51.8926 103.304C51.6906 103.176 51.4424 102.928 51.2312 102.621C51.0108 102.313 50.8178 101.954 50.634 101.731C50.4595 101.509 50.2943 101.423 50.0553 101.099C49.8256 100.774 49.5318 100.218 49.3573 99.7905C49.1828 99.3718 49.1276 99.0894 49.0999 98.9442C49.0724 98.8074 49.0724 98.8074 48.9531 98.7391C48.8335 98.6705 48.5856 98.5423 48.3007 98.3029C48.0069 98.0636 47.6668 97.713 47.4189 97.4651C47.1708 97.2171 47.0239 97.0803 46.7116 96.9351C46.3993 96.7896 45.9215 96.6358 45.5724 96.4989C45.2234 96.3707 45.0122 96.2596 44.6906 96.234C44.3598 96.2083 43.9282 96.2682 43.7167 96.2938C43.4963 96.3279 43.4963 96.3279 43.4688 96.1913C43.4413 96.0458 43.3861 95.7723 43.3584 95.5927C43.331 95.4048 43.331 95.3107 43.331 95.2593C43.331 95.2166 43.331 95.2166 43.3861 95.1994C43.4503 95.191 43.5699 95.1652 43.7719 95.1652C43.9649 95.1652 44.2405 95.191 44.3783 95.1994C44.5251 95.2166 44.5251 95.2166 44.5343 95.0541C44.5528 94.8917 44.5803 94.5583 44.5987 94.1394C44.6262 93.7204 44.6447 93.1988 44.6999 92.8911C44.7548 92.5833 44.8467 92.4808 44.8926 92.4295C44.9385 92.3781 44.9385 92.3781 44.7366 92.2157C44.5343 92.0533 44.1209 91.7368 43.5055 91.1982C42.8901 90.651 42.0724 89.8903 41.3192 89.2576C40.566 88.6249 39.8769 88.129 39.5371 87.8725C39.1971 87.6246 39.1971 87.6246 39.0133 87.6332C38.8296 87.6416 38.4531 87.6588 38.2694 87.6674C38.0856 87.6759 38.0856 87.6759 37.9478 87.5561C37.8192 87.428 37.5528 87.1799 37.1302 86.6243C36.7167 86.0685 36.1565 85.2051 35.7338 84.6151C35.3114 84.0166 35.0358 83.6918 34.6867 83.3583C34.3285 83.0335 33.9058 82.6915 33.5935 82.2897C33.2904 81.8792 33.0974 81.3919 32.9044 80.9558C32.7117 80.5113 32.5279 80.1009 32.436 79.9044C32.3442 79.6992 32.3442 79.6992 32.2523 79.8616C32.1696 80.0154 31.9951 80.3403 31.6551 80.7506C31.3153 81.1696 30.8192 81.6912 30.3966 81.9991C29.9741 82.3153 29.6341 82.4264 29.4688 82.4863C29.2943 82.5376 29.2943 82.5376 29.2209 82.7428C29.1473 82.948 29.0002 83.3497 28.8075 83.6746C28.6052 83.9996 28.3666 84.2559 28.247 84.3758C28.1276 84.5041 28.1276 84.5041 28.1276 84.7262C28.1184 84.9572 28.1092 85.4103 28.0999 86.0599C28.0817 86.7012 28.0632 87.5391 28.0542 87.958C28.045 88.377 28.045 88.377 28.1736 88.3684C28.2929 88.3684 28.5411 88.3598 28.6697 88.3512C28.7982 88.3512 28.7982 88.3512 28.789 88.4283C28.7798 88.5138 28.7615 88.6762 28.7523 88.7531C28.7431 88.8386 28.7431 88.8387 28.7708 88.89C28.8075 88.9411 28.8716 89.0438 28.8993 89.0952C28.936 89.1463 28.936 89.1463 28.9268 89.2404C28.9268 89.3345 28.9176 89.5311 28.9083 89.6252C28.9083 89.7193 28.9083 89.7193 28.7523 89.7534C28.596 89.7876 28.2929 89.8559 28.1459 89.9842C27.9898 90.1124 27.9898 90.3006 27.9624 90.4886C27.9347 90.6682 27.8795 90.8562 27.852 90.9417C27.8246 91.0358 27.8246 91.0358 27.9714 91.0444C28.1184 91.0616 28.4125 91.0872 28.5593 91.0957C28.7064 91.1127 28.7064 91.1127 28.7708 91.1813C28.8349 91.2582 28.9543 91.4034 29.0831 91.5574C29.2209 91.7027 29.3677 91.8565 29.4414 91.9336C29.5148 92.0105 29.5148 92.0105 29.4414 92.0702C29.3677 92.1388 29.2209 92.2584 29.0279 92.3609C28.8349 92.4636 28.587 92.5491 28.4492 92.7884C28.3114 93.0278 28.2747 93.4297 28.201 93.9342ZM2.69068 135.562C3.03058 135.382 3.47153 135.194 3.69198 135.092C3.91245 134.998 3.91245 134.998 4.0227 134.869C4.13293 134.733 4.3534 134.468 4.72085 134.143C5.07912 133.809 5.57519 133.408 5.8967 133.074C6.21822 132.74 6.36522 132.467 6.54894 132.236C6.74185 132.005 6.97152 131.809 7.21034 131.646C7.44919 131.484 7.68804 131.356 7.81664 131.296C7.93608 131.227 7.93608 131.227 8.05549 131.296C8.18409 131.373 8.42294 131.509 8.60667 131.655C8.79039 131.8 8.90983 131.946 9.08437 132.065C9.26809 132.185 9.49776 132.27 9.63554 132.356C9.76414 132.433 9.79171 132.51 9.80089 132.749C9.81008 132.989 9.80089 133.399 9.86521 133.732C9.92949 134.066 10.0581 134.322 10.3429 134.656C10.6185 134.989 11.0411 135.391 11.335 135.733C11.6382 136.075 11.8219 136.348 11.9964 136.528C12.171 136.707 12.3363 136.785 12.4282 136.913C12.5109 137.041 12.5017 137.212 12.4925 137.528C12.4833 137.845 12.4649 138.298 12.4465 138.623C12.4374 138.948 12.4282 139.153 12.419 139.247C12.419 139.349 12.419 139.349 12.272 139.409C12.1342 139.478 11.8586 139.606 11.4085 139.726C10.9584 139.845 10.3429 139.956 10.0306 140.016C9.72739 140.068 9.7274 140.068 9.69986 140.247C9.67229 140.418 9.61717 140.777 9.54367 140.948C9.47019 141.128 9.38751 141.128 9.13947 141.102C8.89146 141.085 8.47807 141.042 7.83502 140.905C7.19197 140.769 6.31928 140.538 5.62113 140.384C4.92295 140.239 4.39934 140.179 3.89408 140.05C3.37965 139.914 2.89278 139.709 2.49777 139.606C2.09357 139.512 1.79042 139.52 1.63425 139.52C1.48727 139.529 1.48727 139.529 1.43215 139.426C1.37703 139.332 1.2668 139.127 1.11063 138.956C0.954462 138.785 0.761549 138.64 0.669687 138.571C0.568637 138.494 0.568637 138.495 0.651314 138.383C0.724805 138.281 0.880972 138.067 1.05551 137.768C1.23005 137.468 1.41378 137.092 1.55157 136.793C1.68937 136.494 1.78123 136.263 1.94659 136.075C2.11194 135.887 2.35079 135.733 2.69068 135.562ZM107.801 76.5101C107.938 76.7922 108.122 77.2112 108.278 77.6301C108.444 78.049 108.581 78.4852 108.783 78.998C108.976 79.511 109.234 80.1181 109.436 80.6395C109.629 81.1695 109.757 81.6143 109.913 82.0929C110.079 82.5804 110.272 83.0932 110.658 84.0424C111.053 84.9999 111.631 86.3848 112.063 87.428C112.504 88.4711 112.789 89.1807 113.064 89.779C113.34 90.3775 113.616 90.8648 113.735 91.2496C113.864 91.6429 113.845 91.925 113.698 92.2926C113.56 92.6516 113.285 93.1049 113.138 93.4895C112.982 93.8656 112.945 94.1907 112.816 94.6866C112.697 95.1824 112.486 95.8662 112.375 96.2082C112.274 96.5503 112.274 96.5589 112.339 96.5675C112.403 96.5758 112.532 96.5844 112.715 96.4989C112.908 96.4134 113.156 96.234 113.285 96.1485C113.404 96.0544 113.404 96.0544 113.487 96.0886C113.579 96.1144 113.744 96.1741 113.827 96.2082C113.909 96.234 113.909 96.234 113.891 96.2852C113.882 96.3279 113.854 96.422 113.919 96.4562C113.983 96.4906 114.139 96.4648 114.424 96.4478C114.709 96.422 115.131 96.405 115.333 96.3965C115.545 96.3879 115.545 96.3879 115.646 96.5331C115.747 96.6699 115.949 96.9606 116.133 97.2427C116.316 97.5336 116.491 97.8243 116.574 97.9695C116.656 98.1233 116.656 98.1233 116.73 98.4653C116.803 98.816 116.95 99.517 117.318 100.517C117.676 101.526 118.264 102.843 118.76 103.903C119.265 104.963 119.679 105.758 120.12 106.399C120.551 107.041 121.02 107.528 121.341 107.964C121.663 108.409 121.846 108.819 121.994 109.084C122.15 109.357 122.26 109.494 122.545 109.879C122.829 110.264 123.289 110.888 123.693 111.341C124.088 111.786 124.419 112.051 124.557 112.264C124.694 112.47 124.639 112.623 124.566 112.786C124.492 112.948 124.4 113.111 124.354 113.231C124.308 113.35 124.308 113.427 124.409 113.555C124.511 113.684 124.713 113.863 124.86 114.077C125.016 114.291 125.108 114.53 125.218 114.633C125.328 114.727 125.457 114.684 125.539 114.607C125.622 114.53 125.659 114.419 125.714 114.359C125.769 114.308 125.843 114.308 125.944 114.376C126.045 114.453 126.173 114.598 126.283 114.769C126.394 114.94 126.476 115.137 126.623 115.299C126.779 115.453 127 115.565 127.285 115.966C127.57 116.36 127.928 117.052 128.304 118.001C128.681 118.942 129.085 120.147 129.471 120.985C129.848 121.814 130.197 122.284 130.381 122.712C130.564 123.139 130.583 123.541 130.776 123.823C130.959 124.105 131.308 124.276 131.483 124.362C131.658 124.447 131.658 124.447 131.593 124.499C131.529 124.55 131.4 124.661 131.336 124.961C131.272 125.26 131.272 125.756 131.207 126.115C131.143 126.465 131.014 126.67 130.803 126.884C130.583 127.098 130.289 127.329 130.105 127.662C129.921 127.996 129.848 128.44 129.747 128.842C129.646 129.235 129.517 129.577 129.453 129.748C129.388 129.928 129.388 129.928 129.462 129.851C129.535 129.782 129.683 129.646 129.857 129.423C130.032 129.201 130.234 128.902 130.325 128.714C130.408 128.526 130.381 128.466 130.371 128.432C130.353 128.397 130.353 128.397 130.472 128.355C130.592 128.303 130.84 128.209 131.106 128.055C131.382 127.901 131.676 127.688 131.832 127.577C131.979 127.474 131.979 127.474 132.108 127.679C132.236 127.876 132.484 128.286 132.944 128.833C133.394 129.389 134.055 130.073 134.698 130.748C135.341 131.415 135.966 132.074 136.49 132.587C137.004 133.091 137.408 133.467 137.858 133.715C138.299 133.972 138.777 134.109 139.08 134.356C139.392 134.613 139.521 134.972 139.741 135.263C139.971 135.553 140.293 135.776 140.789 136.024C141.276 136.263 141.928 136.519 142.415 136.648C142.892 136.776 143.195 136.776 143.526 136.776C143.857 136.767 144.215 136.759 144.463 136.844C144.702 136.921 144.84 137.092 145.042 137.246C145.244 137.4 145.52 137.537 145.74 137.597C145.97 137.665 146.144 137.657 146.227 137.657C146.319 137.657 146.319 137.657 146.319 137.734C146.328 137.819 146.328 137.973 146.429 138.118C146.53 138.264 146.732 138.392 146.888 138.477C147.045 138.554 147.155 138.588 147.302 138.606C147.458 138.623 147.66 138.614 147.816 138.64C147.982 138.674 148.101 138.734 148.221 138.802C148.349 138.871 148.478 138.948 148.542 138.982C148.606 139.025 148.606 139.024 148.551 139.042C148.487 139.059 148.367 139.093 148.23 139.11C148.092 139.136 147.936 139.144 147.825 139.119C147.725 139.093 147.66 139.042 147.495 139.033C147.32 139.016 147.026 139.05 146.769 139.033C146.512 139.007 146.282 138.93 146.007 138.708C145.74 138.486 145.419 138.118 145.097 137.862C144.785 137.605 144.472 137.468 144.133 137.4C143.802 137.332 143.453 137.332 143.214 137.392C142.975 137.443 142.846 137.554 142.764 137.665C142.681 137.776 142.654 137.887 142.764 138.007C142.874 138.135 143.113 138.281 143.48 138.4C143.848 138.529 144.344 138.623 144.675 138.7C145.014 138.785 145.198 138.853 145.216 138.905C145.244 138.956 145.106 138.999 144.821 139.024C144.537 139.042 144.096 139.05 143.637 139.007C143.177 138.956 142.69 138.845 142.194 138.597C141.689 138.34 141.156 137.947 140.623 137.571C140.081 137.204 139.53 136.844 139.126 136.614C138.731 136.374 138.474 136.263 138.125 136.229C137.766 136.195 137.316 136.246 137.096 136.272C136.875 136.297 136.884 136.297 136.857 136.434C136.82 136.571 136.737 136.836 136.793 137.144C136.857 137.451 137.059 137.81 137.298 138.178C137.537 138.546 137.812 138.922 138.134 139.144C138.455 139.358 138.832 139.409 138.951 139.469C139.071 139.52 138.942 139.572 138.648 139.572C138.345 139.563 137.877 139.495 137.5 139.298C137.123 139.11 136.839 138.794 136.591 138.529C136.352 138.255 136.15 138.024 135.975 137.905C135.8 137.785 135.663 137.768 135.58 137.836C135.507 137.905 135.507 138.041 135.571 138.229C135.635 138.418 135.773 138.657 135.911 138.845C136.058 139.024 136.214 139.161 136.297 139.23C136.379 139.298 136.379 139.298 136.251 139.315C136.122 139.332 135.874 139.367 135.589 139.324C135.304 139.281 134.992 139.161 134.579 139.084C134.165 139.016 133.669 138.999 133.247 139.05C132.824 139.101 132.475 139.221 132.3 139.272C132.135 139.332 132.135 139.332 132.034 139.212C131.942 139.093 131.758 138.853 131.207 138.691C130.656 138.529 129.728 138.435 128.929 138.392C128.139 138.34 127.469 138.323 126.917 138.375C126.366 138.426 125.925 138.537 125.714 138.657C125.494 138.785 125.503 138.913 125.512 138.982C125.512 139.05 125.512 139.05 125.126 139.042C124.74 139.024 123.959 139.007 123.133 139.007C122.297 139.007 121.415 139.024 120.854 139.076C120.303 139.119 120.092 139.187 119.972 139.238C119.844 139.298 119.825 139.332 119.862 139.401C119.89 139.461 119.991 139.555 120.221 139.674C120.459 139.794 120.836 139.939 121.185 140.11C121.534 140.281 121.846 140.478 122.039 140.632C122.241 140.777 122.315 140.88 122.352 140.931C122.398 140.982 122.398 140.982 122.223 140.957C122.049 140.923 121.709 140.854 121.057 140.726C120.395 140.598 119.43 140.392 118.668 140.196C117.915 139.991 117.364 139.777 116.895 139.649C116.436 139.52 116.041 139.478 115.581 139.452C115.122 139.418 114.58 139.401 114.277 139.358C113.965 139.315 113.882 139.247 113.312 139.136C112.743 139.025 111.687 138.871 110.575 138.913C109.473 138.965 108.306 139.212 107.488 139.383C106.671 139.555 106.193 139.649 105.963 139.7C105.725 139.743 105.725 139.743 105.495 139.666C105.274 139.58 104.815 139.418 104.31 139.255C103.796 139.093 103.217 138.93 102.61 138.948C101.995 138.965 101.352 139.161 101.196 139.349C101.039 139.538 101.37 139.717 101.747 139.854C102.124 139.982 102.555 140.059 102.959 140.221C103.364 140.384 103.759 140.632 104.273 140.88C104.797 141.119 105.458 141.367 105.908 141.495C106.358 141.632 106.616 141.658 106.735 141.666C106.864 141.683 106.864 141.683 106.404 141.683C105.954 141.683 105.054 141.683 104.089 141.547C103.134 141.41 102.124 141.128 101.434 141.008C100.746 140.888 100.36 140.923 99.9832 140.871C99.6157 140.811 99.2389 140.666 98.7796 140.495C98.3204 140.315 97.76 140.11 97.2639 139.956C96.7678 139.794 96.3177 139.691 95.9135 139.64C95.5093 139.589 95.1418 139.589 94.8939 139.546C94.6549 139.495 94.5448 139.401 94.3244 139.324C94.1039 139.247 93.7731 139.187 93.0748 139.153C92.3768 139.127 91.3112 139.127 90.4936 139.196C89.6759 139.255 89.0972 139.383 88.4082 139.649C87.7194 139.922 86.9202 140.324 86.2496 140.615C85.588 140.897 85.0645 141.068 84.6236 141.111C84.1827 141.153 83.8334 141.051 83.6589 141.008C83.4751 140.957 83.4751 140.957 83.7048 140.897C83.9253 140.829 84.3664 140.7 84.9818 140.427C85.5972 140.153 86.3782 139.726 86.9477 139.332C87.5171 138.93 87.8664 138.554 88.0499 138.358C88.2247 138.169 88.2247 138.169 88.3622 138.169C88.5001 138.169 88.7757 138.169 89.2718 138.058C89.7678 137.947 90.4751 137.725 91.1549 137.434C91.8348 137.144 92.4871 136.793 92.8177 136.545C93.1485 136.297 93.1667 136.152 93.2771 135.716C93.3782 135.288 93.5709 134.579 93.7087 133.929C93.8373 133.279 93.9017 132.689 94.0121 132.381C94.1222 132.082 94.2784 132.057 94.3426 131.911C94.407 131.757 94.3793 131.492 94.453 131.296C94.5264 131.091 94.7009 130.954 94.8754 130.783C95.0499 130.62 95.2154 130.415 95.2796 130.039C95.3532 129.654 95.3255 129.081 95.3073 128.799C95.2981 128.517 95.2981 128.517 95.3715 128.491C95.4541 128.466 95.6104 128.414 95.9135 128.269C96.2076 128.132 96.6577 127.901 96.8597 127.748C97.0709 127.594 97.0434 127.525 96.8597 127.414C96.6759 127.303 96.3269 127.149 96.0238 127.047C95.7115 126.953 95.4359 126.91 95.2981 126.884C95.1602 126.867 95.1602 126.867 95.1602 126.602C95.1695 126.328 95.1787 125.798 95.1143 125.114C95.0591 124.439 94.9213 123.61 94.7376 122.96C94.5448 122.31 94.2967 121.84 94.1681 121.6C94.0488 121.37 94.0488 121.37 94.1129 121.276C94.1773 121.182 94.3059 121.002 94.4252 120.848C94.5448 120.694 94.6549 120.566 94.7653 120.498C94.8754 120.438 94.9857 120.438 94.9765 120.19C94.9673 119.95 94.8387 119.455 94.7653 118.848C94.6916 118.241 94.6734 117.522 94.6642 116.89C94.6457 116.266 94.6367 115.727 94.6367 115.462C94.6275 115.197 94.6275 115.197 94.5448 115.171C94.4622 115.146 94.2967 115.094 94.214 115.069C94.1314 115.043 94.1314 115.043 94.0947 114.932C94.058 114.821 93.9843 114.59 93.7087 113.983C93.4241 113.367 92.9463 112.359 92.6065 111.751C92.2757 111.153 92.0737 110.956 91.9818 110.854C91.8807 110.76 91.8807 110.76 91.8807 110.64C91.8807 110.529 91.8807 110.307 91.7614 109.973C91.6418 109.648 91.4031 109.204 91.2009 108.887C90.9989 108.571 90.8334 108.374 90.4202 107.913C90.0067 107.46 89.3544 106.75 88.9687 106.331C88.5829 105.921 88.4726 105.809 88.4174 105.75C88.3622 105.698 88.3622 105.698 88.4082 105.544C88.4541 105.399 88.546 105.091 88.6012 104.792C88.6656 104.493 88.693 104.194 88.7115 104.048C88.7207 103.894 88.7207 103.903 88.6289 103.749C88.5278 103.595 88.3348 103.279 88.1418 102.997C87.949 102.723 87.7468 102.475 87.655 102.355C87.5541 102.236 87.5541 102.236 87.655 102.176C87.7561 102.108 87.9673 101.979 88.1787 101.74C88.3899 101.509 88.6104 101.159 88.7575 100.868C88.9043 100.569 88.9779 100.321 89.1157 100.132C89.2443 99.9359 89.4463 99.8077 89.6208 99.6966C89.8045 99.5769 89.97 99.4742 90.0527 99.4229C90.1353 99.3718 90.1353 99.3718 90.1446 99.2605C90.1538 99.1494 90.172 98.927 90.1813 98.7305C90.1905 98.5339 90.1905 98.3712 90.1905 98.2943C90.1905 98.2088 90.1905 98.2088 90.4109 97.9781C90.6222 97.7557 91.0631 97.294 91.4213 96.8751C91.7888 96.4562 92.0829 96.063 92.3675 95.7466C92.6524 95.4303 92.9188 95.1824 93.0566 95.0541C93.1852 94.9345 93.1852 94.9345 93.2219 94.9942C93.2586 95.0627 93.3322 95.191 93.4423 95.3448C93.5527 95.5072 93.7087 95.6954 93.8191 95.8151C93.9292 95.9348 94.0028 95.9861 94.0395 96.0117C94.0762 96.0372 94.0762 96.0372 94.0947 95.8407C94.1222 95.6355 94.1681 95.2337 94.1589 94.8062C94.1589 94.3701 94.1039 93.917 94.0762 93.6863C94.0488 93.4639 94.0488 93.4639 94.1314 93.3528C94.214 93.2415 94.3793 93.0278 94.609 92.7629C94.8387 92.4978 95.1418 92.1815 95.5737 91.7027C96.0053 91.224 96.5841 90.5827 97.016 90.1382C97.4476 89.6935 97.7415 89.4286 98.0448 88.907C98.3387 88.377 98.6328 87.5732 99.0277 87.0602C99.4319 86.5388 99.928 86.3078 100.277 86.1199C100.626 85.9403 100.837 85.8034 100.994 85.6326C101.159 85.453 101.278 85.2478 101.407 84.7862C101.545 84.3331 101.692 83.6148 102.105 82.7939C102.518 81.9733 103.189 81.0413 103.667 80.3489C104.135 79.6565 104.402 79.2031 104.585 78.9382C104.76 78.6731 104.852 78.6048 104.944 78.6645C105.045 78.7245 105.137 78.9211 105.201 79.0066C105.265 79.1007 105.302 79.0921 105.366 79.0579C105.431 79.0323 105.522 78.981 105.587 78.7842C105.66 78.5962 105.706 78.2714 105.862 77.9208C106.018 77.5704 106.285 77.1856 106.515 76.8608C106.744 76.5443 106.928 76.2792 107.084 76.1254C107.25 75.9801 107.387 75.9543 107.497 76.0229C107.599 76.0826 107.672 76.2364 107.801 76.5101ZM33.5383 63.8568C34.5671 64.6861 36.2666 66.0112 38.1041 67.4648C39.9413 68.9182 41.9164 70.5084 43.8455 72.0643C45.7746 73.6203 47.6486 75.1423 49.3755 76.5443C51.1027 77.9466 52.6917 79.2289 54.0422 80.2806C55.3833 81.3406 56.4951 82.1784 57.2116 82.7342C57.9189 83.2814 58.2404 83.5463 58.5802 83.7945C58.9203 84.0338 59.2785 84.2559 59.5909 84.4613C59.8939 84.6579 60.1511 84.8289 60.3256 84.8886C60.5001 84.9486 60.592 84.8972 60.7298 84.769C60.8769 84.6321 61.0698 84.4186 61.2259 84.1962C61.3914 83.9824 61.52 83.7601 61.6301 83.6318C61.7404 83.5122 61.8415 83.4952 61.9424 83.5293C62.0528 83.5721 62.1721 83.6746 62.3466 83.7431C62.5211 83.8114 62.7416 83.8456 63.0082 83.8628C63.2654 83.8883 63.5592 83.8969 63.7797 83.9483C64.0094 83.991 64.1749 84.0851 64.3217 84.2559C64.4687 84.4355 64.5973 84.6835 64.5973 84.7776C64.6065 84.8803 64.478 84.8203 64.2575 84.7092C64.0371 84.5979 63.7247 84.4355 63.4583 84.35C63.1827 84.2645 62.9623 84.2645 62.7416 84.2817C62.5211 84.2903 62.3099 84.3073 62.1079 84.3414C61.915 84.3758 61.7404 84.4186 61.5934 84.5041C61.4463 84.5893 61.327 84.7176 61.2536 84.8886C61.18 85.0596 61.1525 85.282 61.2167 85.5899C61.2811 85.9061 61.4463 86.3078 61.7404 86.8381C62.0343 87.3595 62.4662 87.9922 63.0909 88.7274C63.7063 89.4628 64.5147 90.3006 65.1578 90.9075C65.8007 91.5147 66.2785 91.9078 66.6735 92.1643C67.0592 92.4295 67.3623 92.5661 67.5645 92.7029C67.7665 92.8398 67.8584 92.9767 67.9502 93.0536C68.0421 93.1391 68.1158 93.1646 68.2536 93.1305C68.3822 93.0963 68.5749 92.9936 68.7219 92.7799C68.8598 92.5747 68.9609 92.2499 69.0343 92.0361C69.1169 91.8223 69.1906 91.7284 69.1906 91.5488C69.1906 91.3778 69.1169 91.1385 68.9976 90.8134C68.869 90.48 68.6945 90.0783 68.5934 89.5397C68.4833 89.0011 68.4556 88.3342 68.4463 87.5647C68.4281 86.7953 68.4373 85.9317 68.4463 85.4958C68.4463 85.0596 68.4463 85.0596 68.529 84.9827C68.6118 84.9058 68.7679 84.7434 68.9609 84.5468C69.1539 84.35 69.3833 84.1021 69.4936 83.9824C69.604 83.8542 69.604 83.8542 69.604 83.5121C69.604 83.1618 69.604 82.4691 69.6682 81.8194C69.7233 81.1781 69.8519 80.5796 69.9163 80.2548C69.9713 79.9299 69.9713 79.87 70.0631 79.8358C70.0998 79.8189 70.155 79.8103 70.2286 79.8017C70.3113 79.8103 70.3572 79.8189 70.4032 79.8358C70.495 79.87 70.495 79.9299 70.55 80.2548C70.6144 80.5796 70.7337 81.1781 70.7981 81.8194C70.8623 82.4691 70.8623 83.1618 70.8623 83.5121C70.8623 83.8542 70.8623 83.8542 70.9726 83.9824C71.083 84.1021 71.3034 84.35 71.4962 84.5468C71.6892 84.7434 71.8544 84.9058 71.9373 84.9827C72.02 85.0596 72.02 85.0596 72.02 85.4958C72.02 85.9317 72.029 86.7953 72.02 87.5647C72.0107 88.3342 71.974 89.0011 71.8729 89.5397C71.7718 90.0783 71.5973 90.48 71.4687 90.8134C71.3494 91.1385 71.2757 91.3778 71.2757 91.5488C71.2757 91.7284 71.3494 91.8223 71.4228 92.0361C71.5054 92.2499 71.5973 92.5747 71.7443 92.7799C71.8821 92.9936 72.0749 93.0963 72.2127 93.1305C72.3505 93.1646 72.4242 93.1391 72.516 93.0536C72.5987 92.9767 72.6998 92.8398 72.9018 92.7029C73.104 92.5661 73.4071 92.4295 73.7928 92.1643C74.1788 91.9078 74.6564 91.5147 75.2995 90.9075C75.9424 90.3006 76.7508 89.4628 77.3754 88.7274C78.0001 87.9922 78.4228 87.3595 78.7258 86.8381C79.0199 86.3078 79.1852 85.9061 79.2496 85.5899C79.3138 85.282 79.2863 85.0596 79.2127 84.8886C79.1393 84.7176 79.0199 84.5893 78.8729 84.5041C78.7258 84.4186 78.5513 84.3758 78.3583 84.3414C78.1564 84.3073 77.9452 84.2903 77.7247 84.2817C77.504 84.2645 77.2836 84.2645 77.0082 84.35C76.7415 84.4355 76.4202 84.5979 76.2088 84.7092C75.9883 84.8203 75.8597 84.8803 75.869 84.7776C75.869 84.6835 75.9976 84.4355 76.1446 84.2559C76.2916 84.0851 76.4569 83.991 76.6866 83.9483C76.9071 83.8969 77.2009 83.8883 77.4583 83.8628C77.7155 83.8456 77.9452 83.8114 78.1197 83.7431C78.2849 83.6746 78.4135 83.5721 78.5239 83.5293C78.625 83.4952 78.7166 83.5122 78.8362 83.6318C78.9463 83.7601 79.0749 83.9824 79.2404 84.1962C79.3964 84.4186 79.5894 84.6321 79.7365 84.769C79.8743 84.8972 79.9661 84.9486 80.1407 84.8886C80.3152 84.8289 80.5723 84.6579 80.8754 84.4613C81.1877 84.2559 81.546 84.0338 81.886 83.7945C82.2258 83.5463 82.5382 83.2814 83.2547 82.7342C83.9712 82.1784 85.0737 81.3406 86.4241 80.2806C87.7745 79.2289 89.3636 77.9466 91.0908 76.5443C92.8177 75.1423 94.6916 73.6203 96.6208 72.0643C98.5409 70.5084 100.525 68.9182 102.362 67.4648C104.2 66.0112 105.899 64.6861 106.928 63.8568C107.966 63.0189 108.343 62.6855 108.747 62.3521C109.16 62.0186 109.601 61.6852 109.895 61.4714C110.18 61.2663 110.318 61.1894 110.162 61.369C110.015 61.5569 109.583 62.0014 109.087 62.5317C108.591 63.0703 108.03 63.703 107.497 64.404C106.965 65.0964 106.459 65.8574 106.046 66.738C105.624 67.61 105.283 68.6103 104.916 69.4737C104.549 70.346 104.154 71.0812 103.759 71.6625C103.354 72.2439 102.95 72.6714 102.721 72.9621C102.491 73.2528 102.445 73.4238 102.445 73.5093C102.436 73.6034 102.482 73.6117 102.757 73.4921C103.042 73.3724 103.566 73.1159 104.016 72.851C104.475 72.5945 104.861 72.338 105.054 72.2097C105.247 72.0815 105.247 72.0815 105.072 72.2611C104.898 72.449 104.549 72.8083 104.328 73.2869C104.099 73.7572 103.988 74.3471 103.648 75.0226C103.308 75.6978 102.739 76.4588 102.179 77.006C101.618 77.5618 101.058 77.8952 100.782 78.0662C100.507 78.2286 100.507 78.2286 100.791 78.2114C101.085 78.1859 101.664 78.1345 102.206 78.049C102.757 77.9721 103.272 77.8694 103.676 77.7839C104.089 77.707 104.392 77.6559 104.539 77.6301C104.687 77.6045 104.687 77.6045 104.567 77.69C104.438 77.7669 104.181 77.9208 103.86 78.0576C103.538 78.1859 103.143 78.2969 102.831 78.6817C102.518 79.0665 102.289 79.7248 101.885 80.3403C101.48 80.9558 100.911 81.5288 100.314 81.9391C99.7166 82.358 99.0919 82.606 98.7796 82.7342C98.4765 82.8539 98.4765 82.8539 98.6787 82.9052C98.8899 82.948 99.3034 83.0421 99.781 82.9736C100.259 82.9052 100.801 82.6743 101.187 82.4949C101.572 82.3239 101.802 82.187 101.995 82.1015C102.197 82.016 102.353 81.9733 102.087 82.2725C101.82 82.5632 101.131 83.1959 100.58 83.7773C100.038 84.3586 99.6339 84.8886 98.7796 85.9317C97.9162 86.9747 96.6025 88.5308 95.6196 89.5569C94.6457 90.5913 94.0028 91.0871 92.7717 91.7027C91.5409 92.3182 89.7127 93.0364 87.8754 93.917C86.0382 94.789 84.1827 95.8151 82.8323 96.6444C81.4818 97.4651 80.6275 98.0892 80.1589 98.4995C79.6905 98.9101 79.6169 99.1152 79.6446 99.175C79.6813 99.2435 79.8191 99.175 80.1774 98.987C80.5449 98.8074 81.1236 98.5081 82.088 98.1319C83.0435 97.7557 84.3754 97.3026 85.5972 96.8581C86.8191 96.422 87.9306 95.9945 88.8401 95.6099C89.7586 95.2166 90.4751 94.8659 91.0631 94.5497C91.6603 94.2249 92.1289 93.9256 92.3675 93.7801C92.5972 93.6349 92.5972 93.6349 92.3768 93.8657C92.1563 94.1052 91.7062 94.5669 91.2653 95.2252C90.8244 95.8834 90.3832 96.7299 89.5933 97.8926C88.8124 99.0553 87.6734 100.543 86.2863 101.979C84.8992 103.407 83.2457 104.792 81.6748 106.134C80.104 107.477 78.6065 108.776 77.4583 110.118C76.3099 111.469 75.5107 112.871 74.9595 114.06C74.4082 115.257 74.1051 116.248 73.9031 117.069C73.7009 117.881 73.4622 118.514 73.3886 119.155C73.3152 119.796 73.1407 120.446 73.1407 121.13C73.1407 121.814 73.1774 122.541 73.1774 123.088C73.1774 123.635 73.1407 124.02 73.058 124.328C72.9752 124.644 72.8558 124.884 72.7547 125.149C72.6538 125.405 72.7088 125.679 72.6998 125.944C72.6813 126.217 72.7365 126.491 72.6628 126.79C72.5987 127.081 72.4149 127.397 72.1945 127.637C71.9648 127.876 71.7076 128.038 71.4779 128.115C71.2483 128.192 71.0553 128.167 70.9634 128.158C70.8623 128.149 70.8623 128.149 70.9634 128.132C71.0553 128.115 71.239 128.081 71.3676 127.996C71.5054 127.901 71.588 127.765 71.634 127.594C71.6799 127.414 71.6799 127.209 71.6984 127.012C71.7259 126.816 71.7718 126.619 71.8544 126.465C71.9373 126.303 72.0567 126.175 72.1208 126.021C72.1945 125.875 72.2127 125.704 72.1578 125.636C72.1118 125.559 71.9922 125.585 71.9188 125.61C71.8454 125.644 71.827 125.679 71.7443 125.781C71.6617 125.875 71.5239 126.038 71.3676 126.132C71.2208 126.234 71.046 126.268 70.8992 126.277C70.743 126.286 70.7522 126.277 70.6878 126.268C70.6144 126.26 70.6144 126.26 70.6051 127.081C70.5959 127.91 70.5684 129.56 70.5777 130.629C70.5869 131.706 70.6236 132.193 70.6878 132.527C70.7429 132.852 70.8166 133.006 70.8992 133.134C70.9726 133.262 71.046 133.348 71.092 133.416C71.1289 133.484 71.1289 133.527 71.046 133.63C70.9634 133.724 70.8074 133.878 70.7062 134.066C70.6144 134.245 70.5959 134.468 70.5869 134.681C70.5684 134.886 70.5684 135.083 70.6144 135.22C70.6511 135.365 70.7247 135.459 70.7981 135.596C70.8623 135.724 70.9267 135.895 70.8808 136.109C70.8441 136.331 70.697 136.588 70.6418 137.195C70.5959 137.81 70.6418 138.777 70.697 139.367C70.7522 139.948 70.8074 140.153 70.9819 140.512C71.1564 140.871 71.4412 141.401 71.6892 141.854C71.9463 142.316 72.1578 142.709 72.3782 143.137C72.6079 143.556 72.8374 144.017 73.0029 144.308C73.1682 144.599 73.2693 144.736 73.3152 144.804C73.3704 144.872 73.3704 144.872 73.2967 144.89C73.2233 144.907 73.0855 144.941 72.9844 145.043C72.8925 145.138 72.8374 145.309 72.8558 145.454C72.8743 145.599 72.9569 145.719 73.0303 145.873C73.104 146.018 73.1774 146.181 73.2141 146.266C73.2508 146.352 73.2508 146.352 73.1407 146.326C73.0303 146.292 72.8099 146.24 72.6538 146.198C72.4976 146.155 72.4242 146.121 72.2312 146.206C72.0474 146.292 71.7443 146.488 71.4228 146.745C71.092 147.001 70.7429 147.317 70.504 147.668C70.4214 147.796 70.3572 147.916 70.2286 148.002C70.1091 147.916 70.0449 147.796 69.9623 147.668C69.7233 147.317 69.3651 147.001 69.0435 146.745C68.7219 146.488 68.4189 146.292 68.2351 146.206C68.0421 146.121 67.9595 146.155 67.8124 146.198C67.6564 146.24 67.4359 146.292 67.3256 146.326C67.2155 146.352 67.2155 146.352 67.2522 146.266C67.2889 146.181 67.3533 146.018 67.4359 145.873C67.5093 145.719 67.592 145.599 67.6105 145.454C67.6197 145.309 67.5738 145.138 67.4726 145.043C67.3808 144.941 67.2337 144.907 67.1696 144.89C67.0959 144.872 67.0959 144.872 67.1418 144.804C67.197 144.736 67.2981 144.599 67.4634 144.308C67.6289 144.017 67.8584 143.556 68.0791 143.137C68.3085 142.709 68.52 142.316 68.7679 141.854C69.025 141.401 69.3099 140.871 69.4844 140.512C69.6499 140.153 69.7141 139.948 69.7693 139.367C69.8244 138.777 69.8704 137.81 69.8152 137.195C69.7693 136.588 69.6222 136.331 69.5763 136.109C69.5396 135.895 69.604 135.724 69.6682 135.596C69.7416 135.459 69.8152 135.365 69.8519 135.22C69.8886 135.083 69.8886 134.886 69.8794 134.681C69.8704 134.468 69.8427 134.245 69.7508 134.066C69.6589 133.878 69.5029 133.724 69.4202 133.63C69.3374 133.527 69.3374 133.484 69.3743 133.416C69.411 133.348 69.4936 133.262 69.567 133.134C69.6499 133.006 69.7233 132.852 69.7785 132.527C69.8427 132.193 69.8794 131.706 69.8886 130.629C69.8886 129.56 69.8704 127.91 69.8611 127.081C69.8427 126.26 69.8427 126.26 69.7785 126.268C69.7141 126.277 69.5855 126.286 69.4385 126.277C69.2824 126.268 69.1169 126.234 68.9609 126.132C68.8046 126.038 68.6668 125.875 68.5841 125.781C68.5015 125.679 68.4833 125.644 68.4096 125.61C68.3362 125.585 68.2166 125.559 68.1707 125.636C68.125 125.704 68.1432 125.875 68.2076 126.021C68.2718 126.175 68.3914 126.303 68.474 126.465C68.5567 126.619 68.6026 126.816 68.6301 127.012C68.6578 127.209 68.6578 127.414 68.6945 127.594C68.7404 127.765 68.8231 127.901 68.9609 127.996C69.0987 128.081 69.2824 128.115 69.3743 128.132C69.4662 128.149 69.4662 128.149 69.3651 128.158C69.2732 128.167 69.0802 128.192 68.8505 128.115C68.6208 128.038 68.3637 127.876 68.1432 127.637C67.9135 127.397 67.7298 127.081 67.6656 126.79C67.592 126.491 67.6472 126.217 67.6289 125.944C67.6197 125.679 67.5461 125.405 67.4452 125.149C67.3441 124.884 67.2155 124.644 67.1418 124.328C67.0592 124.02 67.0225 123.635 67.0225 123.088C67.0225 122.541 67.0592 121.814 67.0592 121.13C67.0592 120.446 67.0225 119.796 66.9491 119.155C66.8755 118.514 66.7654 117.881 66.5631 117.069C66.3519 116.248 66.0581 115.257 65.5068 114.06C64.9556 112.871 64.1564 111.469 63.0082 110.118C61.8598 108.776 60.3623 107.477 58.7917 106.134C57.2208 104.792 55.5671 103.407 54.18 101.979C52.7836 100.543 51.6539 99.0553 50.873 97.8926C50.083 96.7299 49.6419 95.8834 49.201 95.2252C48.7601 94.5669 48.31 94.1052 48.0895 93.8657C47.8598 93.6349 47.8598 93.6349 48.0987 93.7801C48.3374 93.9256 48.806 94.2249 49.394 94.5497C49.9912 94.8659 50.7077 95.2166 51.617 95.6099C52.5357 95.9945 53.638 96.422 54.8598 96.8581C56.0816 97.3026 57.4136 97.7557 58.3783 98.1319C59.3335 98.5081 59.9214 98.8074 60.2797 98.987C60.6472 99.175 60.785 99.2435 60.8125 99.175C60.8494 99.1152 60.7665 98.9101 60.3074 98.4995C59.8388 98.0892 58.9844 97.4651 57.634 96.6444C56.2746 95.8151 54.4281 94.789 52.5909 93.917C50.7536 93.0364 48.9254 92.3182 47.6945 91.7027C46.4635 91.0871 45.8206 90.5913 44.8467 89.5569C43.8637 88.5308 42.55 86.9747 41.6867 85.9317C40.8324 84.8886 40.4282 84.3586 39.8769 83.7773C39.3349 83.1959 38.6369 82.5632 38.3795 82.2725C38.1131 81.9733 38.2694 82.016 38.4713 82.1015C38.6643 82.187 38.894 82.3239 39.2797 82.4949C39.6657 82.6743 40.2077 82.9052 40.6853 82.9736C41.1629 83.0421 41.5764 82.948 41.7876 82.9052C41.9898 82.8539 41.9898 82.8539 41.6775 82.7342C41.3651 82.606 40.7405 82.358 40.1433 81.9391C39.5461 81.5288 38.9766 80.9558 38.5817 80.3403C38.1775 79.7248 37.9478 79.0665 37.6355 78.6817C37.3231 78.2969 36.9282 78.1859 36.6066 78.0576C36.2851 77.9208 36.0279 77.7669 35.8993 77.69C35.7708 77.6045 35.7708 77.6045 35.9268 77.6301C36.0738 77.6559 36.3769 77.707 36.7811 77.7839C37.1946 77.8694 37.7089 77.9721 38.2601 78.049C38.8021 78.1345 39.3808 78.1859 39.6657 78.2114C39.9596 78.2286 39.9596 78.2286 39.6839 78.0662C39.3993 77.8952 38.8481 77.5618 38.2876 77.006C37.7273 76.4588 37.1579 75.6978 36.8178 75.0226C36.478 74.3471 36.3677 73.7572 36.138 73.2869C35.9176 72.8083 35.5685 72.449 35.394 72.2611C35.2195 72.0815 35.2195 72.0815 35.4125 72.2097C35.6052 72.338 35.9912 72.5945 36.4413 72.851C36.9005 73.1159 37.4243 73.3724 37.7089 73.4921C37.9845 73.6117 38.0212 73.6034 38.0212 73.5093C38.0212 73.4238 37.9663 73.2528 37.7458 72.9621C37.5161 72.6714 37.1119 72.2439 36.7077 71.6625C36.3035 71.0812 35.9176 70.346 35.5501 69.4737C35.1828 68.6103 34.8428 67.61 34.4203 66.738C34.0069 65.8574 33.5016 65.0964 32.9688 64.404C32.436 63.703 31.8756 63.0703 31.3795 62.5317C30.8834 62.0014 30.4517 61.5569 30.3047 61.369C30.1486 61.1894 30.2772 61.2663 30.5711 61.4714C30.8559 61.6852 31.3061 62.0186 31.7195 62.3521C32.1237 62.6855 32.5002 63.0189 33.5383 63.8568ZM71.8454 114.453C71.7166 114.59 71.625 114.761 71.588 114.932C71.5421 115.103 71.5421 115.274 71.5239 115.736C71.4962 116.189 71.4502 116.924 71.3401 117.685C71.2298 118.446 71.046 119.224 70.9452 119.848C70.8348 120.463 70.7981 120.917 70.7707 121.891C70.7522 122.874 70.7429 124.379 70.7429 125.132C70.7337 125.892 70.7337 125.892 70.7981 125.85C70.8623 125.807 70.8441 125.713 71.0093 125.61C71.1656 125.499 71.3584 125.379 71.4779 125.26C71.5973 125.14 71.432 125.055 71.5054 124.866C71.7259 124.26 71.7076 124.165 71.5973 123.9C71.5513 123.789 71.4872 123.687 71.4135 123.601C71.3494 123.516 71.3309 123.345 71.3676 123.139C71.3953 122.934 71.4687 122.695 71.6065 122.43C71.7443 122.165 71.9463 121.746 72.0567 121.447C72.1578 121.147 72.1668 120.959 72.1301 120.489C72.1026 120.01 72.2956 119.361 72.2037 118.89C72.1026 118.42 72.2312 118.112 72.2037 117.839C72.1852 117.565 72.2586 117.309 72.3415 117.129C72.4242 116.95 72.4609 116.787 72.4791 116.479C72.4883 116.163 72.4332 115.624 72.369 115.197C72.3046 114.761 72.3323 114.436 72.2037 114.308C72.0841 114.179 71.974 114.325 71.8454 114.453ZM68.6208 114.453C68.7497 114.59 68.8323 114.761 68.8782 114.932C68.9242 115.103 68.9242 115.274 68.9424 115.736C68.9701 116.189 69.016 116.924 69.1261 117.685C69.2365 118.446 69.411 119.224 69.5211 119.848C69.6315 120.463 69.6682 120.917 69.6956 121.891C69.7141 122.874 69.7233 124.379 69.7233 125.132C69.7326 125.892 69.7326 125.892 69.6682 125.85C69.604 125.807 69.4844 125.713 69.3284 125.61C69.1628 125.499 68.9791 125.379 68.8598 125.26C68.7404 125.14 68.6852 125.029 68.5567 124.866C68.4281 124.695 68.2076 124.482 68.1158 124.276C68.0239 124.071 68.0421 123.883 68.1158 123.781C68.1892 123.687 68.3085 123.687 68.3822 123.601C68.4463 123.516 68.4648 123.345 68.4373 123.139C68.4004 122.934 68.327 122.695 68.1892 122.43C68.0514 122.165 67.8494 121.874 67.7483 121.575C67.6379 121.267 67.6379 120.959 67.6656 120.489C67.6931 120.01 67.7665 119.361 67.8676 118.89C67.9687 118.42 68.0973 118.112 68.125 117.839C68.1525 117.565 68.0698 117.309 67.9962 117.129C67.9135 116.95 67.8309 116.83 67.8124 116.522C67.8034 116.206 67.8676 115.701 67.932 115.265C67.9962 114.838 68.0698 114.487 68.1892 114.359C68.3085 114.231 68.4923 114.325 68.6208 114.453ZM69.218 87.4536C69.218 87.4536 68.8598 87.8725 68.8598 88.548C68.8598 89.2148 69.2088 90.2834 69.411 90.7623C69.5948 89.5397 69.613 88.6504 69.218 87.4536ZM71.3584 87.4536C71.3584 87.4536 71.7166 87.8725 71.7166 88.548C71.7166 89.2148 71.3676 90.2834 71.1656 90.7623C70.9819 89.5397 70.9634 88.6504 71.3584 87.4536Z" fill="#15364E"/>
</svg>
