<svg width="36" height="37" viewBox="0 0 36 37" fill="none" xmlns="http://www.w3.org/2000/svg">
<g clip-path="url(#clip0_53_76)">
<path d="M36 18.2673C36 8.26379 27.9405 0.154785 18 0.154785C8.055 0.157035 -0.00450134 8.26379 -0.00450134 18.2695C-0.00450134 27.3078 6.579 34.8003 15.183 36.1593V23.503H10.6155V18.2695H15.1875V14.2758C15.1875 9.73754 17.8762 7.23104 21.987 7.23104C23.958 7.23104 26.0167 7.58429 26.0167 7.58429V12.0393H23.7465C21.5122 12.0393 20.8147 13.4365 20.8147 14.8698V18.2673H25.8052L25.0087 23.5008H20.8125V36.157C29.4165 34.798 36 27.3055 36 18.2673Z" fill="#CFE3F1"/>
</g>
<defs>
<clipPath id="clip0_53_76">
<rect width="36" height="36" fill="white" transform="translate(0 0.156982)"/>
</clipPath>
</defs>
</svg>
