<svg width="40" height="40" viewBox="0 0 40 40" fill="none" xmlns="http://www.w3.org/2000/svg">
<rect width="40" height="40" fill="#295370"/>
<path d="M5.5 38.5V17C5.5 8.869 11.869 2.5 20 2.5C28.131 2.5 34.5 8.869 34.5 17V38.5H5.5Z" fill="#91ADC0"/>
<path d="M20 3C27.85 3 34 9.15 34 17V38H6V17C6 9.15 12.15 3 20 3ZM20 2C11.6 2 5 8.64 5 17V39H35V17C35 8.64 28.4 2 20 2Z" fill="#4788C7"/>
<path d="M9.5 18.5H30.5V38.5H9.5V18.5Z" fill="#91ADC0"/>
<path d="M30 19V38H10V19H30ZM31 18H9V39H31V18Z" fill="#4788C7"/>
<path d="M26 37H30V39H26V37ZM31 37H34V39H31V37ZM6 37H9V39H6V37ZM10 37H14V39H10V37Z" fill="#91ADC0"/>
<path d="M14.5 19.1431H25.5V38.5001H14.5V19.1431Z" fill="#B6DCFE"/>
<path d="M25 19.6431V38.0001H15V19.6431H25ZM26 18.6431H14V39.0001H26V18.6431Z" fill="#4788C7"/>
<path d="M15 37H25V39H15V37Z" fill="#B6DCFE"/>
<path d="M30.928 16C31 17.204 31 18.433 31 19.636C31 26.085 26.16 36 20 36C13.84 36 9 26.085 9 19.636C9 18.427 9 17.199 9.07 16H8.072C8.001 17.226 8 18.457 8 19.636C8 26.467 13.153 37 20 37C26.847 37 32 26.467 32 19.636C32 18.457 31.999 17.226 31.928 16H30.928Z" fill="#4788C7"/>
<path d="M9 19.636C9 26.085 13.84 36 20 36C26.16 36 31 26.085 31 19.636C31 13.187 31 6 20 6C9 6 9 13.103 9 19.636Z" fill="#DFF0FE"/>
<path d="M9 20.9999C7.957 20.9999 8 18.9999 8 18.9999C8 15.9459 5.5 11.9999 5.5 11.9999L5.463 11.0139C9.259 11.0139 11.818 15.0719 11.818 15.0719L9 20.9999Z" fill="#DFF0FE"/>
<path d="M10.374 14.836C9.89201 14.145 8.71301 12.871 6.81101 12.275C5.63501 11.925 5.50001 12 5.50001 12C5.50001 12 5.31101 11.005 5.46301 11.014C9.39201 11.014 11.818 15.072 11.818 15.072L10.374 14.836ZM19.998 7.49996C19.724 7.49996 19.5 7.27696 19.5 7.00196V2.03096C19.5 1.75696 19.723 1.53296 19.998 1.53296C20.277 1.53296 20.5 1.75596 20.5 2.03096V7.00296C20.5 7.27696 20.277 7.50096 20.002 7.50096L19.998 7.49996Z" fill="#4788C7"/>
<path d="M20 2.03296V7.00196L19.998 2.03296H20ZM20.002 1.03296H19.997C19.449 1.03296 19 1.48196 19 2.03096V7.00196C19 7.55096 19.449 7.99996 19.998 7.99996H20.003C20.551 7.99996 21 7.55096 21 7.00196V2.03096C21 1.48196 20.551 1.03296 20.002 1.03296ZM14.998 8.49996C14.724 8.49996 14.5 8.27696 14.5 8.00196V3.03096C14.5 2.75696 14.723 2.53296 14.998 2.53296C15.277 2.53296 15.5 2.75596 15.5 3.03096V8.00296C15.5 8.27696 15.277 8.50096 15.002 8.50096H14.998V8.49996Z" fill="#4788C7"/>
<path d="M15 3.03296V8.00196L14.998 3.03296H15ZM15.002 2.03296H14.997C14.449 2.03296 14 2.48196 14 3.03096V8.00196C14 8.55096 14.449 8.99996 14.998 8.99996H15.003C15.551 8.99996 16 8.55096 16 8.00196V3.03096C16 2.48196 15.551 2.03296 15.002 2.03296ZM24.998 8.49996C24.724 8.49996 24.5 8.27696 24.5 8.00196V3.03096C24.5 2.75696 24.723 2.53296 24.998 2.53296C25.277 2.53296 25.5 2.75596 25.5 3.03096V8.00296C25.5 8.27696 25.277 8.50096 25.002 8.50096H24.998V8.49996Z" fill="#4788C7"/>
<path d="M25 3.03296V8.00196L24.998 3.03296H25ZM25.002 2.03296H24.997C24.449 2.03296 24 2.48196 24 3.03096V8.00196C24 8.55096 24.449 8.99996 24.998 8.99996H25.003C25.551 8.99996 26 8.55096 26 8.00196V3.03096C26 2.48196 25.551 2.03296 25.002 2.03296Z" fill="#4788C7"/>
<path d="M31 33H34V34H31V33ZM6 33H9V34H6V33ZM6 30H9V31H6V30ZM31 30H34V31H31V30ZM31 36H34V37H31V36ZM6 36H9V37H6V36Z" fill="#CFE3F1"/>
<path d="M31 20.9999C32.043 20.9999 32 18.9999 32 18.9999C32 15.9459 34.5 11.9999 34.5 11.9999L34.537 11.0139C30.741 11.0139 28.182 15.0719 28.182 15.0719L31 20.9999Z" fill="#DFF0FE"/>
<path d="M29.626 14.836C30.108 14.145 31.287 12.871 33.189 12.275C34.365 11.925 34.5 12 34.5 12C34.5 12 34.689 11.005 34.537 11.014C30.608 11.014 28.182 15.072 28.182 15.072L29.626 14.836ZM16 30.333C16 30.333 17.389 33 20 33C22.611 33 24 30.333 24 30.333L21 29H19L16 30.333Z" fill="#4788C7"/>
<path d="M23.5 20C23.5 16.916 25.956 16.524 27.012 16.5L27.114 16.499C28.482 16.499 29.811 17.145 30.501 17.822V18C30.508 18.101 30.608 19.338 29.555 20.492C28.422 21.734 26.335 22.422 23.501 22.493L23.5 20Z" fill="#CFE3F1"/>
<path d="M27.114 16.999C28.255 16.999 29.36 17.491 30.001 18.041V18.053L30.004 18.091C30.007 18.135 30.078 19.19 29.167 20.174C28.191 21.228 26.416 21.844 23.999 21.974V20C23.999 17.451 25.893 17.026 27.023 17L27.114 16.999ZM27.114 15.999C27.076 15.999 27.038 15.999 27 16C25.086 16.045 23 17.06 23 20V23C31.523 23 31 18 31 18V17.622C30.246 16.774 28.702 15.999 27.114 15.999Z" fill="#4788C7"/>
<path d="M27 17C26.4696 17 25.9609 17.2107 25.5858 17.5858C25.2107 17.9609 25 18.4696 25 19C25 19.5304 25.2107 20.0391 25.5858 20.4142C25.9609 20.7893 26.4696 21 27 21C27.5304 21 28.0391 20.7893 28.4142 20.4142C28.7893 20.0391 29 19.5304 29 19C29 18.4696 28.7893 17.9609 28.4142 17.5858C28.0391 17.2107 27.5304 17 27 17Z" fill="#91ADC0"/>
<path d="M27 18C26.7348 18 26.4804 18.1054 26.2929 18.2929C26.1054 18.4804 26 18.7348 26 19C26 19.2652 26.1054 19.5196 26.2929 19.7071C26.4804 19.8946 26.7348 20 27 20C27.2652 20 27.5196 19.8946 27.7071 19.7071C27.8946 19.5196 28 19.2652 28 19C28 18.7348 27.8946 18.4804 27.7071 18.2929C27.5196 18.1054 27.2652 18 27 18Z" fill="#4788C7"/>
<path d="M23.5 20C23.5 16.916 25.956 16.524 27.012 16.5H27.015C28.199 16.5 29.307 16.937 30.054 17.471C28.445 17.513 25.362 17.987 23.5 20.789V20Z" fill="#B6DCFE"/>
<path d="M27.111 16.999C27.52 16.999 27.925 17.064 28.307 17.174C26.996 17.441 25.378 18.039 24.045 19.357C24.338 17.378 25.997 17.024 27.024 17L27.111 16.999ZM27.111 15.999C27.074 15.999 27.037 15.999 27 16C25.086 16.045 23 17.06 23 20V23C24.471 18.439 28.641 17.968 30.303 17.968C30.737 17.968 31 18 31 18V17.644C30.246 16.796 28.7 15.999 27.111 15.999Z" fill="#4788C7"/>
<path d="M20 6C10.402 6 9.139 11.901 9 17.644C9.763 16.768 11.358 15.961 13 16C14.914 16.045 17 17.059 17 20V25C17 25 17.455 27 20 27C22.545 27 23 25 23 25V20C23 17.059 25.086 16.045 27 16C28.642 15.961 30.237 16.768 31 17.644C30.859 11.951 29.585 6 20 6Z" fill="#DFF0FE"/>
<path d="M22 6.68905C21.683 6.62905 21.352 6.58005 21 6.55105V15H22V6.68905ZM28 9.64605C27.7 9.40205 27.363 9.19005 27 9.00005V12H28V9.64605ZM19 6.55005C18.648 6.57905 18.317 6.62705 18 6.68705V15H19V6.55005ZM12 9.64005V12H13V9.00005C12.637 9.18805 12.3 9.39805 12 9.64005ZM15 8.00005H16V13H15V8.00005ZM24 8.00005H25V13H24V8.00005Z" fill="#CFE3F1"/>
<path d="M17 25V26L20 28L23 26V25H17ZM10.033 16.814C10.217 11.467 11.47 7 20 7C28.53 7 29.783 11.467 29.967 16.814C30.378 17.06 30.73 17.341 30.987 17.632C30.883 11.785 29.868 6 20 6C10.119 6 9.115 11.731 9.012 17.632C9.269 17.341 9.621 17.06 10.033 16.814ZM6.5 12H5.5C5.225 12 5 11.775 5 11.5C5 11.225 5.225 11 5.5 11H6.5C6.775 11 7 11.225 7 11.5C7 11.775 6.775 12 6.5 12Z" fill="#4788C7"/>
<path d="M21.5 14C21.775 14 22 14.225 22 14.5V15.5C22 15.775 21.775 16 21.5 16C21.225 16 21 15.775 21 15.5V14.5C21 14.225 21.225 14 21.5 14ZM24.5 12C24.775 12 25 12.225 25 12.5V13.5C25 13.775 24.775 14 24.5 14C24.225 14 24 13.775 24 13.5V12.5C24 12.225 24.225 12 24.5 12ZM27.5 11C27.775 11 28 11.225 28 11.5V12.5C28 12.775 27.775 13 27.5 13C27.225 13 27 12.775 27 12.5V11.5C27 11.225 27.225 11 27.5 11ZM18.5 14C18.775 14 19 14.225 19 14.5V15.5C19 15.775 18.775 16 18.5 16C18.225 16 18 15.775 18 15.5V14.5C18 14.225 18.225 14 18.5 14ZM15.5 12C15.775 12 16 12.225 16 12.5V13.5C16 13.775 15.775 14 15.5 14C15.225 14 15 13.775 15 13.5V12.5C15 12.225 15.225 12 15.5 12ZM12.5 11C12.775 11 13 11.225 13 11.5V12.5C13 12.775 12.775 13 12.5 13C12.225 13 12 12.775 12 12.5V11.5C12 11.225 12.225 11 12.5 11Z" fill="#CFE3F1"/>
<path d="M33.5 12H34.5C34.775 12 35 11.775 35 11.5C35 11.225 34.775 11 34.5 11H33.5C33.225 11 33 11.225 33 11.5C33 11.775 33.225 12 33.5 12Z" fill="#4788C7"/>
<path d="M16.506 22.494C13.672 22.423 11.585 21.734 10.452 20.493C9.39899 19.339 9.49899 18.102 9.50399 18.05L9.50499 17.823C10.194 17.145 11.524 16.499 12.893 16.499L12.995 16.5C14.051 16.524 16.507 16.916 16.507 20L16.506 22.494Z" fill="#CFE3F1"/>
<path d="M12.893 16.999L12.983 17C14.112 17.026 16.006 17.451 16.006 20V21.974C13.589 21.844 11.814 21.228 10.838 20.174C9.928 19.191 9.998 18.136 10 18.104L10.005 18.052V18.04C10.648 17.49 11.752 16.999 12.893 16.999ZM12.893 15.999C11.305 15.999 9.761 16.774 9.007 17.622V18C9.007 18 8.484 23 17.007 23V20C17.007 17.06 14.921 16.045 13.007 16C12.968 15.999 12.93 15.999 12.893 15.999Z" fill="#4788C7"/>
<path d="M13.006 17C12.4756 17 11.9669 17.2107 11.5918 17.5858C11.2167 17.9609 11.006 18.4696 11.006 19C11.006 19.5304 11.2167 20.0391 11.5918 20.4142C11.9669 20.7893 12.4756 21 13.006 21C13.5364 21 14.0451 20.7893 14.4202 20.4142C14.7953 20.0391 15.006 19.5304 15.006 19C15.006 18.4696 14.7953 17.9609 14.4202 17.5858C14.0451 17.2107 13.5364 17 13.006 17Z" fill="#91ADC0"/>
<path d="M13.006 18C12.7408 18 12.4864 18.1054 12.2989 18.2929C12.1114 18.4804 12.006 18.7348 12.006 19C12.006 19.2652 12.1114 19.5196 12.2989 19.7071C12.4864 19.8946 12.7408 20 13.006 20C13.2712 20 13.5256 19.8946 13.7131 19.7071C13.9006 19.5196 14.006 19.2652 14.006 19C14.006 18.7348 13.9006 18.4804 13.7131 18.2929C13.5256 18.1054 13.2712 18 13.006 18Z" fill="#4788C7"/>
<path d="M16.506 20.789C14.644 17.986 11.56 17.513 9.951 17.471C10.694 16.936 11.786 16.498 12.895 16.498C14.049 16.524 16.505 16.915 16.505 19.999V20.789H16.506Z" fill="#B6DCFE"/>
<path d="M12.896 16.999L12.983 17C14.01 17.024 15.668 17.378 15.962 19.357C14.629 18.039 13.011 17.441 11.7 17.174C12.081 17.064 12.487 16.999 12.896 16.999ZM12.896 15.999C11.307 15.999 9.761 16.796 9.007 17.644V18C9.007 18 9.27 17.968 9.704 17.968C11.366 17.968 15.537 18.439 17.007 23V20C17.007 17.06 14.921 16.045 13.007 16C12.969 15.999 12.932 15.999 12.896 15.999Z" fill="#4788C7"/>
</svg>
