<svg width="37" height="37" viewBox="0 0 37 37" fill="none" xmlns="http://www.w3.org/2000/svg">
<g clip-path="url(#clip0_53_74)">
<path d="M18.8187 0.156982C13.934 0.156982 13.3197 0.179482 11.4005 0.264982C9.48123 0.354982 8.17398 0.656482 7.02873 1.10198C5.82744 1.55383 4.73933 2.26259 3.84048 3.17873C2.9249 4.07805 2.21622 5.16602 1.76373 6.36698C1.31823 7.50998 1.01448 8.81948 0.926726 10.732C0.841226 12.6557 0.818726 13.2677 0.818726 18.1592C0.818726 23.0462 0.841226 23.6582 0.926726 25.5775C1.01673 27.4945 1.31823 28.8017 1.76373 29.947C2.22498 31.1305 2.83923 32.134 3.84048 33.1352C4.83948 34.1365 5.84298 34.753 7.02648 35.212C8.17398 35.6575 9.47898 35.9612 11.396 36.049C13.3175 36.1345 13.9295 36.157 18.8187 36.157C23.708 36.157 24.3177 36.1345 26.2392 36.049C28.154 35.959 29.4657 35.6575 30.611 35.212C31.8115 34.7599 32.8988 34.0512 33.797 33.1352C34.7982 32.134 35.4125 31.1305 35.8737 29.947C36.317 28.8017 36.6207 27.4945 36.7107 25.5775C36.7962 23.6582 36.8187 23.0462 36.8187 18.157C36.8187 13.2677 36.7962 12.6557 36.7107 10.7342C36.6207 8.81948 36.317 7.50998 35.8737 6.36698C35.4213 5.16599 34.7126 4.078 33.797 3.17873C32.8984 2.26225 31.8102 1.55343 30.6087 1.10198C29.4612 0.656482 28.1517 0.352732 26.237 0.264982C24.3155 0.179482 23.7057 0.156982 18.8142 0.156982H18.821H18.8187ZM17.2055 3.40148H18.821C23.627 3.40148 24.1962 3.41723 26.093 3.50498C27.848 3.58373 28.802 3.87848 29.4365 4.12373C30.2757 4.44998 30.8765 4.84148 31.5065 5.47148C32.1365 6.10148 32.5257 6.69998 32.852 7.54148C33.0995 8.17373 33.392 9.12773 33.4707 10.8827C33.5585 12.7795 33.5765 13.3487 33.5765 18.1525C33.5765 22.9562 33.5585 23.5277 33.4707 25.4245C33.392 27.1795 33.0972 28.1312 32.852 28.7657C32.5634 29.5473 32.1028 30.254 31.5042 30.8335C30.8742 31.4635 30.2757 31.8527 29.4342 32.179C28.8042 32.4265 27.8502 32.719 26.093 32.8C24.1962 32.8855 23.627 32.9057 18.821 32.9057C14.015 32.9057 13.4435 32.8855 11.5467 32.8C9.79173 32.719 8.83998 32.4265 8.20548 32.179C7.4236 31.8908 6.71626 31.431 6.13548 30.8335C5.53641 30.2531 5.0751 29.5457 4.78548 28.7635C4.54023 28.1312 4.24548 27.1772 4.16673 25.4222C4.08123 23.5255 4.06323 22.9562 4.06323 18.148C4.06323 13.342 4.08123 12.775 4.16673 10.8782C4.24773 9.12323 4.54023 8.16923 4.78773 7.53473C5.11398 6.69548 5.50548 6.09473 6.13548 5.46473C6.76548 4.83473 7.36398 4.44548 8.20548 4.11923C8.83998 3.87173 9.79173 3.57923 11.5467 3.49823C13.2072 3.42173 13.8507 3.39923 17.2055 3.39698V3.40148ZM28.4285 6.38948C28.1448 6.38948 27.8639 6.44535 27.6019 6.5539C27.3398 6.66245 27.1017 6.82156 26.9011 7.02213C26.7006 7.22271 26.5414 7.46082 26.4329 7.72289C26.3243 7.98495 26.2685 8.26583 26.2685 8.54948C26.2685 8.83314 26.3243 9.11401 26.4329 9.37608C26.5414 9.63814 26.7006 9.87626 26.9011 10.0768C27.1017 10.2774 27.3398 10.4365 27.6019 10.5451C27.8639 10.6536 28.1448 10.7095 28.4285 10.7095C29.0013 10.7095 29.5507 10.4819 29.9558 10.0768C30.3609 9.67175 30.5885 9.12235 30.5885 8.54948C30.5885 7.97661 30.3609 7.42721 29.9558 7.02213C29.5507 6.61705 29.0013 6.38948 28.4285 6.38948ZM18.821 8.91398C17.5949 8.89485 16.3772 9.11982 15.2389 9.5758C14.1006 10.0318 13.0644 10.7096 12.1906 11.5699C11.3167 12.4302 10.6228 13.4558 10.1491 14.5868C9.67544 15.7179 9.4315 16.9319 9.4315 18.1581C9.4315 19.3843 9.67544 20.5983 10.1491 21.7294C10.6228 22.8605 11.3167 23.886 12.1906 24.7463C13.0644 25.6066 14.1006 26.2844 15.2389 26.7404C16.3772 27.1964 17.5949 27.4214 18.821 27.4022C21.2477 27.3644 23.5622 26.3738 25.2649 24.6443C26.9676 22.9148 27.922 20.5851 27.922 18.1581C27.922 15.7311 26.9676 13.4014 25.2649 11.6719C23.5622 9.94243 21.2477 8.95184 18.821 8.91398ZM18.821 12.1562C20.4125 12.1562 21.9388 12.7885 23.0641 13.9138C24.1895 15.0392 24.8217 16.5655 24.8217 18.157C24.8217 19.7485 24.1895 21.2748 23.0641 22.4002C21.9388 23.5255 20.4125 24.1577 18.821 24.1577C17.2295 24.1577 15.7032 23.5255 14.5778 22.4002C13.4524 21.2748 12.8202 19.7485 12.8202 18.157C12.8202 16.5655 13.4524 15.0392 14.5778 13.9138C15.7032 12.7885 17.2295 12.1562 18.821 12.1562Z" fill="#CFE3F1"/>
</g>
<defs>
<clipPath id="clip0_53_74">
<rect width="36" height="36" fill="white" transform="translate(0.818726 0.156982)"/>
</clipPath>
</defs>
</svg>
