<svg width="51" height="37" viewBox="0 0 51 37" fill="none" xmlns="http://www.w3.org/2000/svg">
<path d="M25.7984 0.156982H26.0766C28.6455 0.166592 41.6619 0.262686 45.1715 1.23003C46.2325 1.52526 47.1993 2.10071 47.9753 2.89889C48.7513 3.69706 49.3094 4.69 49.5937 5.77848C49.9093 6.99567 50.1312 8.60684 50.2812 10.2693L50.3125 10.6024L50.3812 11.4352L50.4062 11.7683C50.6094 14.696 50.6344 17.4379 50.6375 18.0369V18.2771C50.6344 18.8985 50.6062 21.8262 50.3812 24.8755L50.3562 25.2119L50.3281 25.545C50.1718 27.3772 49.9406 29.1966 49.5937 30.5355C49.3102 31.6244 48.7525 32.6178 47.9763 33.4161C47.2002 34.2144 46.2329 34.7896 45.1715 35.0839C41.5463 36.0833 27.7673 36.1538 25.8578 36.157H25.414C24.4483 36.157 20.4543 36.1378 16.2666 35.9904L15.7353 35.9712L15.4634 35.9584L14.929 35.936L14.3946 35.9135C10.9256 35.7566 7.62229 35.5035 6.10032 35.0807C5.03929 34.7867 4.07228 34.212 3.29616 33.4143C2.52005 32.6166 1.96209 31.6238 1.67817 30.5355C1.33128 29.1998 1.10001 27.3772 0.943751 25.545L0.918749 25.2087L0.893748 24.8755C0.739512 22.7051 0.654045 20.5301 0.637482 18.354L0.637482 17.96C0.643732 17.2713 0.668734 14.8914 0.837494 12.2648L0.859371 11.9349L0.868746 11.7683L0.893748 11.4352L0.962502 10.6024L0.993754 10.2693C1.14376 8.60684 1.36565 6.99247 1.6813 5.77848C1.96473 4.68957 2.52248 3.69616 3.29863 2.89785C4.07477 2.09953 5.04204 1.52437 6.10345 1.23003C7.62542 0.813625 10.9288 0.557374 14.3977 0.397217L14.929 0.374795L15.4665 0.355577L15.7353 0.345968L16.2697 0.323546C19.244 0.225448 22.2195 0.170989 25.1953 0.160186H25.7984V0.156982ZM20.6387 10.439V25.8717L33.6302 18.1586L20.6387 10.439Z" fill="#CFE3F1"/>
</svg>
